<svg xmlns="http://www.w3.org/2000/svg" viewBox="0 0 181.4 181.4">
  <defs>
    <style>
      .y {
        fill: #e4c52d;
      }

      .g1 {
        fill: #322b22;
      }

      .g2 {
        fill: #6a6a6a;
      }

      .g3 {
        fill: #7a7a7a;
      }

      .n {
        fill: none;
      }

      .g4 {
        fill: #adadad;
      }
    </style>
  </defs>
  <g>
    <polygon class="y" points="113.7 34.1 113.4 43.3 92 34.1 96.6 34.1 105.1 34.1 106 34.1 108.9 34.1 113.7 34.1"/>
    <polygon class="g1" points="113.4 43.3 113 55 66.7 35 66.7 34.1 71.4 34.1 74.4 34.1 75.3 34.1 83.7 34.1 90.2 34.1 92 34.1 113.4 43.3"/>
    <polygon class="y" points="113 55 112.8 60.9 110.8 63.7 67 44.8 67 44.8 66.7 35 87.3 43.9 113 55"/>
    <polygon class="g1" points="110.8 63.7 104.4 72.8 67.5 56.8 67 44.8 67 44.8 110.8 63.7"/>
    <polygon class="g2" points="108.9 0 108.9 34.1 106 34.1 106 28.5 106 0 108.9 0"/>
    <path class="g3" d="M106,28.5v5.6h-.9a16.5,16.5,0,0,0-29.8,0h-.9V28.5a18.2,18.2,0,0,1,3.1-3.1A20.3,20.3,0,0,1,106,28.5Z"/>
    <path class="g2" d="M105.1,34.1H96.6a9.6,9.6,0,0,0-12.9,0H75.3a16.5,16.5,0,0,1,29.8,0Z"/>
    <polygon class="y" points="104.4 72.8 100.7 78.2 99.4 78.2 94.9 78.2 73.1 68.7 67.6 60.9 67.5 56.8 104.4 72.8"/>
    <polygon class="g3" points="99.4 78.2 99.4 80.2 96.9 80.2 90.2 80.2 83.5 80.2 80.9 80.2 80.9 78.2 94.9 78.2 99.4 78.2"/>
    <path class="g3" d="M96.6,34.1H83.7A9.6,9.6,0,0,1,96.6,34.1Z"/>
    <polygon class="g1" points="94.9 78.2 80.9 78.2 79.7 78.2 73.1 68.7 94.9 78.2"/>
    <path class="g3" d="M93.2,38.7a3.8,3.8,0,0,1,.9,2.5,4,4,0,0,1-3.9,4h0a3.8,3.8,0,0,1-2.9-1.3h0l.3-.2h.1a.6.6,0,0,0,.6,0l4.4-4.5a.7.7,0,0,0,.1-.5Z"/>
    <path class="g3" d="M93.2,38.7h-.5a.6.6,0,0,0-.6,0l-4.5,4.4a.6.6,0,0,0,0,.6l-.3.2a3.8,3.8,0,0,1-1-2.7,3.9,3.9,0,0,1,3.9-3.9A4.1,4.1,0,0,1,93.2,38.7Z"/>
    <path class="g2" d="M92.8,38.8a.7.7,0,0,1-.1.5l-4.4,4.5a.6.6,0,0,1-.6,0h-.1a.6.6,0,0,1,0-.6l4.5-4.4a.6.6,0,0,1,.6,0Z"/>
    <polygon class="g2" points="74.4 28.5 74.4 34.1 71.4 34.1 71.4 0 74.4 0 74.4 28.5"/>
    <path class="g1" d="M49.3,164.4c0,1.7-.1,3.3-.1,4.9s-.2,2.8-.3,3.6l3.9-.2H56v7.3H29v-6.2h.6a13.2,13.2,0,0,0,3.7-.5,4.1,4.1,0,0,0,2.5-2.2,12.9,12.9,0,0,0,.9-5.6v-2.6H11v-8.9l32.5-41.7h5.8v42.1H66.2l1.9,8.5H49.3ZM36.6,132,19.8,154H36.7V132Z"/>
    <path class="n" d="M101.2,127.9a15.8,15.8,0,0,0-3.4-6.6,7.4,7.4,0,0,0-5.9-2.5,8.2,8.2,0,0,0-5.7,2.1,14.4,14.4,0,0,0-3.6,5.8,32.5,32.5,0,0,0-1.9,8.4,79.1,79.1,0,0,0-.6,10c0,2.6.1,5.4.2,8.1a64.7,64.7,0,0,0,1,8,26.6,26.6,0,0,0,2,6.9,12.7,12.7,0,0,0,3.6,4.8,8,8,0,0,0,5.4,1.8,7.7,7.7,0,0,0,5.5-2.1,14.3,14.3,0,0,0,3.3-5.7,37.7,37.7,0,0,0,1.7-8.4c.3-3.1.5-6.4.5-9.9s-.2-7.6-.5-11.1A43.7,43.7,0,0,0,101.2,127.9Z"/>
    <path class="n" d="M101.2,127.9a15.8,15.8,0,0,0-3.4-6.6,7.4,7.4,0,0,0-5.9-2.5,8.2,8.2,0,0,0-5.7,2.1,14.4,14.4,0,0,0-3.6,5.8,32.5,32.5,0,0,0-1.9,8.4,79.1,79.1,0,0,0-.6,10c0,2.6.1,5.4.2,8.1a64.7,64.7,0,0,0,1,8,26.6,26.6,0,0,0,2,6.9,12.7,12.7,0,0,0,3.6,4.8,8,8,0,0,0,5.4,1.8,7.7,7.7,0,0,0,5.5-2.1,14.3,14.3,0,0,0,3.3-5.7,37.7,37.7,0,0,0,1.7-8.4c.3-3.1.5-6.4.5-9.9s-.2-7.6-.5-11.1A43.7,43.7,0,0,0,101.2,127.9Z"/>
    <path class="n" d="M101.2,127.9a15.8,15.8,0,0,0-3.4-6.6,7.4,7.4,0,0,0-5.9-2.5,8.2,8.2,0,0,0-5.7,2.1,14.4,14.4,0,0,0-3.6,5.8,32.5,32.5,0,0,0-1.9,8.4,79.1,79.1,0,0,0-.6,10c0,2.6.1,5.4.2,8.1a64.7,64.7,0,0,0,1,8,26.6,26.6,0,0,0,2,6.9,12.7,12.7,0,0,0,3.6,4.8,8,8,0,0,0,5.4,1.8,7.7,7.7,0,0,0,5.5-2.1,14.3,14.3,0,0,0,3.3-5.7,37.7,37.7,0,0,0,1.7-8.4c.3-3.1.5-6.4.5-9.9s-.2-7.6-.5-11.1A43.7,43.7,0,0,0,101.2,127.9Z"/>
    <g>
      <path class="g2" d="M110.7,121.9l1.4-1.5c7-8.4,5.3-20-2-27.4-2.1-2.1-4.2-4-7.2-4.8a8.3,8.3,0,0,1-6-8H83.5v5.6a12.3,12.3,0,0,0,.2,2l4,5.4a62,62,0,0,0,9.7,6.3,7.8,7.8,0,0,1,2.7,2.4,10.4,10.4,0,0,1,.8,11.9,14,14,0,0,1,3,1.5A22.5,22.5,0,0,1,110.7,121.9Z"/>
      <path class="n" d="M83.7,129l-1.6-.7a32.6,32.6,0,0,0-1.4,6.8,79.1,79.1,0,0,0-.6,10c0,2.6.1,5.4.2,8.1a64.7,64.7,0,0,0,1,8,26.6,26.6,0,0,0,2,6.9,12.7,12.7,0,0,0,3.6,4.8,8,8,0,0,0,5.4,1.8,7.7,7.7,0,0,0,5.5-2.1,14.3,14.3,0,0,0,3.3-5.7,37.7,37.7,0,0,0,1.7-8.4c.3-3.1.5-6.4.5-9.9s-.2-7.6-.5-11.1a42.1,42.1,0,0,0-1.5-9.3A24.7,24.7,0,0,1,83.7,129Z"/>
      <path class="n" d="M92,118.8h0Z"/>
      <path class="g1" d="M116.2,134.6a38.4,38.4,0,0,0-4.4-11.1l-1.1-1.6a22.5,22.5,0,0,0-6.8-6.6,14,14,0,0,0-3-1.5,22.3,22.3,0,0,0-8.8-1.6,22.1,22.1,0,0,0-8.7,1.6,11.7,11.7,0,0,0,.5,1.1,10.3,10.3,0,0,0,8,3.9H92a7.2,7.2,0,0,1,5.8,2.5,15.8,15.8,0,0,1,3.4,6.6.4.4,0,0,1,.1.3,42.1,42.1,0,0,1,1.5,9.3c.3,3.5.5,7.3.5,11.1s-.2,6.8-.5,9.9a37.7,37.7,0,0,1-1.7,8.4,14.3,14.3,0,0,1-3.3,5.7,7.7,7.7,0,0,1-5.5,2.1,8,8,0,0,1-5.4-1.8,12.7,12.7,0,0,1-3.6-4.8,26.6,26.6,0,0,1-2-6.9,64.7,64.7,0,0,1-1-8c-.1-2.7-.2-5.5-.2-8.1a79.1,79.1,0,0,1,.6-10,32.6,32.6,0,0,1,1.4-6.8,19,19,0,0,1-7.8-7.3,31.6,31.6,0,0,0-2,2.7A39.5,39.5,0,0,0,67.4,135a46.5,46.5,0,0,0-1.7,12.1,54.6,54.6,0,0,0,1.4,12,38.4,38.4,0,0,0,4.4,11.1,23,23,0,0,0,8,8.1,22.6,22.6,0,0,0,12.2,3.1,19.9,19.9,0,0,0,11.5-3.2,24.8,24.8,0,0,0,8.1-8.3,42.3,42.3,0,0,0,4.8-11.3,50.6,50.6,0,0,0,1.5-12A49.2,49.2,0,0,0,116.2,134.6Z"/>
      <path class="g2" d="M101.2,127.9a15.8,15.8,0,0,0-3.4-6.6,7.2,7.2,0,0,0-5.8-2.5h-.1a10.3,10.3,0,0,1-8-3.9,11.7,11.7,0,0,1-.5-1.1,34.6,34.6,0,0,1-2.1-7.8,9.1,9.1,0,0,0-3.9-6.5,8.6,8.6,0,0,0-4.1-1.6,7.4,7.4,0,0,0-2.1,0l-2,.5a1.7,1.7,0,0,0-.6,2.3,8.6,8.6,0,0,1,3.6,6.3,46.7,46.7,0,0,0,1.3,12.4,8,8,0,0,0,.8,1.6,19,19,0,0,0,7.8,7.3l1.6.7a24.7,24.7,0,0,0,17.6-.8A.4.4,0,0,0,101.2,127.9Z"/>
    </g>
    <path class="g1" d="M122.9,153.9l32.4-41.7h5.8v42.1h9.3v8.5h-9.3v1.6c0,1.7,0,3.3-.1,4.9s-.2,2.8-.3,3.6l3.9-.2h3.2v7.3H140.9v-6.2h.5a14,14,0,0,0,3.8-.5,4.3,4.3,0,0,0,2.4-2.2,12.9,12.9,0,0,0,.9-5.6v-2.6H114.8l2.3-8.9M148.4,132l-16.7,22h16.8V132Z"/>
    <path class="g4" d="M94.7,83.5a5.7,5.7,0,0,1-1,8.1,5.9,5.9,0,0,1-3.9.8,3.4,3.4,0,0,0-1.7.5l-.4.3L77.4,99.5h0a8.6,8.6,0,0,0-4.1-1.6L83.7,87.8l.3-.2a4.6,4.6,0,0,0,.9-1.5,5.4,5.4,0,0,1,9.8-2.6Zm-1.2,2.3a1.6,1.6,0,0,0-.6-1.3,2.1,2.1,0,0,0-1.1-.4,1.7,1.7,0,0,0-1.6,1.7,1.7,1.7,0,0,0,.3,1,1.7,1.7,0,0,0,3-1Z"/>
    <path class="g3" d="M92.9,84.5a1.7,1.7,0,1,1-2.4,2.3h.6L92.8,85c.1,0,.1-.1,0-.2h-.1Z"/>
    <path class="g3" d="M92.9,84.5l-.2.3h-.1l-1.7,1.7c-.1.1-.1.2,0,.2h-.4a1.7,1.7,0,0,1-.3-1,1.7,1.7,0,0,1,1.6-1.7A2.1,2.1,0,0,1,92.9,84.5Z"/>
    <path class="g2" d="M92.8,84.8c.1.1.1.2,0,.2l-1.7,1.7h-.2c-.1,0-.1-.1,0-.2l1.7-1.7h.2Z"/>
  </g>
</svg>
