<svg id="Layer_1" data-name="Layer 1" xmlns="http://www.w3.org/2000/svg" viewBox="0 0 205.9937 206">
    <defs>
        <style>
        @keyframes show {
            0%   { opacity: 1; }
            12.5%  { opacity: 1; }
            25%  { opacity: 0; }
        }

        .frame {
            opacity: 0;
            animation: 750ms show infinite;
        }

        .frame.f-1 {
            animation-delay: 0ms;
        }

        .frame.f-2 {
            animation-delay: 107ms;
        }

        .frame.f-3 {
            animation-delay: 214ms;
        }

        .frame.f-4 {
            animation-delay: 321ms;
        }

        .frame.f-5 {
            animation-delay: 428ms;
        }

        .frame.f-6 {
            animation-delay: 535ms;
        }

        .frame.f-7 {
            animation-delay: 643ms;
        }
        </style>
    </defs>
    <path class="frame f-1" d="M48.9754,111.3948c11.618,2.1588,22.5885-1.46,33.4848-4.1665,6.0064-1.492,1.7844-7.506,1.963-11.31.1832-3.902.6123-9.5679-.2512-11.4754-2.3762-5.2494,6.13-8.0952,1.4564-12.4467,3.7516-2.5046-.124-7.3906,3.5915-10.6942,1.5343-1.3643-.6659-7.0122-1.2823-10.6926-1.0116-6.04,2.6741-9.83,5.6932-14.4356,2.3063-3.5185,5.33-6.77,6.8734-10.8125.44-1.154-.2038-2.878,1.5949-3.2477,1.6453-.3382,2.1844,1.0986,3.0007,2.144.7816,1.0009,2.1455,2.7358,2.6517,2.5457,1.6914-.6352.863-2.5413,1.0394-3.9385.1034-.8185-.0359-1.6646.0034-2.4949.1022-2.1626-.0454-4.9716,2.59-5.29,2.7555-.3334,2.8074,2.6973,3.6457,4.589.82,1.8513.2327,5.278,2.7536,5.1275,1.7641-.1053.85-3.4719,1.45-5.2963.7946-2.4131.2216-6.5126,3.0868-6.6673,3.6345-.1962,3.1028,3.95,3.7344,6.577.6254,2.6015,1.1593,5.1252,4.3371,6.1053,1.9312.5956,2.4511,2.6878,2.5637,4.5357.4142,6.7975,2.6176,13.3946,2.0375,20.3128a61.6218,61.6218,0,0,0,4.4838,27.7817,11.0376,11.0376,0,0,1-.3673,9.1614c-3.2388,6.8256-.2454,11.1375,7.6105,11.0334a7.198,7.198,0,0,0,2.9374-.4973c13.6163-6.522,22.5355,3.0457,32.316,9.477,1.3726.9026,3.4295,2.2539,2.126,4.4242-1.0441,1.7383-3.1549,1.1683-4.5884.6292-8.4964-3.1956-12.7426,1.2279-17.5273,7.7218-6.1692,8.3728-16.5595,10.9981-26.0408,13.938-12.44,3.8574-25.3244,2.99-38.0932,1.3019-5.028-.665-9.8618-1.7039-8.992-8.6123a2.6463,2.6463,0,0,0-1.3272-2.99c-9.4636-4.5057-18.0514-11.026-29.9732-7.8136-9.116,2.4564-18.8407,1.6986-28.3271,1.0592-1.4711-.0991-3.321-.3917-3.2709-2.3357.0468-1.8167,1.89-1.58,3.1283-1.6854C35.716,112.3913,42.3512,111.9055,48.9754,111.3948Z"/>
    <path class="frame f-2" d="M141.3784,142.777c.172,1.2585.058,4.9322,1.2416,8.125,2.3079,6.2255-2.6894,9.2653-5.0877,13.4387-.2606.4534-2.1239.5648-2.1459.4939-2.3055-7.4223-13.3936-3.4765-15.1188-11.6658-.173-.8211-1.2926-2.04-2-2.0587-6.9837-.1883-8.25-6.79-11.0293-10.8082a22.0827,22.0827,0,0,0-10.4618-8.5031c-4.3081-1.737-8.32-3.6655-7.3876-9.6433.34-2.1777-2.09-2.6916-3.54-3.7314-12.7129-9.118-26.1879-9.9726-40.4707-4.1074-5.7718,2.37-11.9629,2.8309-18.1726,2.6015-1.6629-.0615-3.7707-.1743-4.0289-2.1592-.2974-2.2856,2.1026-2.1524,3.5412-2.6589,16.4232-5.7826,34.23-4.2932,50.7693-9.876,12.5486-4.2359,24.9946-8.9623,38.2783-10.8511,9.8908-1.4065,18.87,1.6232,27.5687,5.2072,3.9623,1.6325,7.1662,1.8608,10.9035.5434,8.3172-2.9317,27.4378,3.8422,32.0506,11.3075,1.3961,2.2593.6973,3.4466-1.8681,3.5854a6.482,6.482,0,0,1-2.4662-.2895c-8.844-3.1484-14.2612,1.231-18.3475,8.3779-2.6129,4.57-6.6643,6.8049-11.66,7.6852C141.824,129.5739,141.2369,130.2816,141.3784,142.777Z"/>
    <path class="frame f-3" d="M130.827,171.6616c.4934,5.2511.9558,10.1952,1.4236,15.1388.1719,1.8167-.15,3.8039-2.2307,3.753-6.26-.1532-5.8044,3.5463-5.0878,7.8383.3592,2.1515.1354,4.9153-1.8355,5.8819-2.5166,1.2341-2.1031-2.2918-3.4818-3.1955-1.2381-.8115-2.7112-2.47-3.724-2.233-10.1107,2.3686-11.86-7.5137-14.5808-12.164-4.6425-7.9359-6.4646-17.67-8.1992-27.1968-1.144-6.2834.3686-10.8092,1.6714-16.25.8824-3.6858,1.7793-8.1257-2.6435-11.7058-2.2378-1.8114-4.6746-5.2675-3.91-9.2792a3.1069,3.1069,0,0,0-.8243-2.6606c-8.8706-4.9973-17.0663-12.065-28.5055-9.3994-9.7445,2.2706-19.5745,4.0873-29.6415,3.7641-1.95-.0626-5.2313.9827-5.4037-1.8305-.1341-2.1875,3.1416-1.6181,4.9464-2.1335,14.33-4.0921,29.5639-1.7734,43.8643-6.2773,11.5537-3.6389,23.2987-6.6809,34.8056-10.4546,13.2422-4.3427,25.5937-1.372,37.7536,3.7573,2.7489,1.16,5.126.7979,7.7075-.0485,9.355-3.0674,26.9926,2.8592,32.6052,10.9058,1.6418,2.3537,1.1753,3.7248-1.7909,3.89a6.5351,6.5351,0,0,1-2.4669-.3013c-8.0614-2.8237-13.5859.4546-17.27,7.4509-3.227,6.1286-8.3571,8.8042-14.9636,9.1048-2.6225.1193-3.89,1.3913-5.3573,3.5673C135.4329,143.8251,131.69,157.383,130.827,171.6616Z"/>
    <path class="frame f-4" d="M46.8444,108.1187c18.7869,1.502,35.3446-5.883,52.383-10.7679,15.7486-4.5152,31.3346-8.1265,47.0926-.2477,2.3194,1.16,4.5569-.0042,6.7608-.7286,7.3015-2.4,13.9689-1.7439,20.1753,3.3209,3.3184,2.7079,7.302,4.5876,10.8766,7.002,1.2008.8111,2.4566,2.0978,1.7,3.7755-.67,1.4855-2.3914,1.4259-3.5456.9882-9.6817-3.6711-15.3165.9858-19.7883,8.9914-4.57,8.1821-13.968,5.76-20.8852,8.8546-1.7852.7987-3.8774.9228-5.8361,1.32-10.7253,2.1741-16.06,8.1791-16.7586,19.21-.2841,4.4835-.34,8.9986-.1818,13.4882.1477,4.1888,1.748,8.4106-5.1906,9.11-3.4211.3448-1.572,4.4166-1.58,6.9113-.0064,2.018.1277,4.246-1.7138,5.4728-1.5645,1.0423-2.0263-1.2672-3.0271-1.6387-15.2919-5.6761-7.9817-18.4641-8.941-28.54-.3085-3.24.4768-6.6246,1.0283-9.8981.9918-5.8872.4925-10.7013-6.0494-13.46a6.639,6.639,0,0,1-4.0578-7.8237,2.8053,2.8053,0,0,0-1.6075-3.3333c-9.7271-4.7959-18.65-11.2507-30.94-8.002-9.4353,2.4942-19.5148,1.8388-29.3491,1.2358-1.0828-.0664-2.7177.1-2.7138-1.484.0036-1.4318,1.6031-1.5836,2.6827-1.7069C33.9948,109.4128,40.6234,108.7623,46.8444,108.1187Z"/>
    <path class="frame f-5" d="M95.4707,140.8713c.957-3.348-.4071-6.7807-4.0587-9.4131-.6382-.46-1.4217-1.3254-1.4091-1.99.1649-8.7133-7.0794-10.1957-12.7391-13.2523a28.2866,28.2866,0,0,0-19.32-2.7752,123.5032,123.5032,0,0,1-28.39,1.5085c-1.4475-.0687-3.4932.0528-3.61-1.8374-.125-2.0213,2.1152-1.98,3.402-2.0621,10.4626-.6674,20.9461-1.02,31.4036-1.7488,15.45-1.0773,29.64-7.3128,44.4027-11.2057,10.4225-2.7484,21.0167-4.9847,30.5362-10.4822,1.5514-.8959,4.5975-1.9686,4.52,2.012-.0952,4.8806,5.1706,8.8167,10.0011,7.367,11.9821-3.596,26.3955.6484,34.1176,10.1364.6722.8259,1.3748,2.1735,1.1576,3.0558-.3784,1.5374-2.14,1.7261-3.3518,1.2715-9.9047-3.7155-15.5991,1.2561-20.3449,9.198-2.0779,3.4774-5.9131,4.7521-9.8337,6.1943-12.7851,4.7029-26.1334,5.5567-39.3565,7.6745-5.0254.8049-10.2177,5.5224-11.3747,12.0662-.3977,2.2492,1.0221,5.9778-2.5192,6.0569-3.736.0835-2.7867-3.8178-3.1883-6.2509A39.9619,39.9619,0,0,1,95.4707,140.8713Z"/>
    <path class="frame f-6" d="M64.417,111.0452c-9.7609,1.094-19.8314,4.7723-30.4354,4.2605-2.7779-.1341-7.3294,1.5155-7.7969-1.7507-.32-2.2324,4.7648-2.7684,7.5556-3.1746a169.01,169.01,0,0,1,20.355-1.9926c9.9484-.23,19.4278-2.5008,28.8812-5.22,3.8054-1.0945,5.8336-3.2816,6.1126-7.4186.5479-8.1231,2.1161-16.0325,5.7329-23.46.4695-.964-.1818-2.58-.5458-3.8259-1.8063-6.184,2.3155-8.5395,6.91-10.0118a20.544,20.544,0,0,0,4.2939-2.2095c3.6256-2.1478,7.0113-5.6022,9.3658,1.5764.6411,1.9545,1.927.0409,2.3106-1.3073.5862-2.06.9192-4.6385,3.76-4.4977,2.4322.12,2.8115,2.4733,3.4293,4.3768.396,1.22.3586,3.03,1.9182,3.19,1.5929.164,1.8592-1.6988,2.43-2.7869.8608-1.64,1.4233-3.6606,3.6806-3.4866,2.2846.1761,2.0376,2.7771,3.1535,4.0016,7.82,8.5806,4.8825,19.149,5.7784,29.0465.831,9.18,5.6032,12.098,14.0816,8.9918,5.1959-1.9036,10.1008-1.6158,14.8056,1.3824,4.7649,3.0364,9.6,5.9674,14.2824,9.1255,1.2917.8712,2.8686,2.2788,1.7725,4.154-.8895,1.5216-2.7181,1.3037-4.0841.7444-8.323-3.4078-13.6973.0814-17.5594,7.2954-2.7687,5.1718-7.6188,6.5288-12.867,8.3154a116.9832,116.9832,0,0,1-36.1429,6.091,176.5367,176.5367,0,0,1-17.9291-.3787c-4.6165-.3954-7.9739-2.732-6.8783-8.213.3127-1.5642.0023-2.77-1.2882-3.4086C81.6526,116.5708,74.3636,111.1973,64.417,111.0452Z"/>
    <path class="frame f-7" d="M47.0757,107.8356c10.5217-.0287,20.9441-.6662,31.1986-3.3225,3.207-.8307,4.4121-1.6788,4.5662-5.7841.7607-20.2557,17.6624-34.8616,38.4843-29.6987,3.8.9422,7.9381.471,11.9106.776,7.0207.5391,8.6244,3.4611,6.2167,9.979-1.1085,3.0007-5.875,6.3642-2.1682,9.1877,4.0743,3.1033,9.1782,6.2075,15.1507,3.2846,5.9372-2.9056,11.6176-1.8766,17.0518,1.5979,4.4667,2.8559,9.08,5.4886,13.472,8.4516,1.4209.9586,3.0943,2.5339,1.8765,4.6037-1.0441,1.7744-2.9851,1.2343-4.5288.7188-7.7146-2.5763-12.6174.0357-16.9706,6.9671-5.5081,8.77-16.2448,9.6638-24.8622,13.5128-13.1429,5.87-27.3925,4.2817-41.2945,4.304-5.1429.0083-7.14-3.8525-7.0882-8.5024.0237-2.1046.4333-4.1545-1.7529-5.1933-9.4224-4.4768-18.5608-9.8957-29.8092-7.5263-9.0433,1.905-18.2373,1.2232-27.3736.6-1.7906-.122-4.8932.5684-4.9049-2-.0124-2.7334,3.0387-1.8641,4.8489-1.9089C36.4217,107.7507,41.75,107.8356,47.0757,107.8356Z"/>
</svg>
