<svg id="Layer_1" data-name="Layer 1" xmlns="http://www.w3.org/2000/svg" viewBox="0 0 205.9937 206">
    <defs>
        <style>
        @keyframes show {
            0%   { opacity: 1; }
            12.5%  { opacity: 1; }
            25%  { opacity: 0; }
        }

        .frame {
            opacity: 0;
            animation: 750ms show infinite;
        }

        .frame.f-1 {
            animation-delay: 0ms;
        }

        .frame.f-2 {
            animation-delay: 107ms;
        }

        .frame.f-3 {
            animation-delay: 214ms;
        }

        .frame.f-4 {
            animation-delay: 321ms;
        }

        .frame.f-5 {
            animation-delay: 428ms;
        }

        .frame.f-6 {
            animation-delay: 535ms;
        }

        .frame.f-7 {
            animation-delay: 643ms;
        }
        </style>
    </defs>
        <path class="frame f-1" d="M55.6066,95.95c-4.7562-1.24-6.9521-7.1132-3.9365-13.3444-1.1831-2.8209-7.313.6362-6.4328-5.4718.3827-2.6562-4.3946-5.4588-.27-8.3574-2.7846-2.4136-5.3916-4.4414-7.7148-6.7542-2.1792-2.1694-5.8512-4.1713-1.9891-8.0327.2918-.2917-.2814-1.9552-.8813-2.5443-2.5952-2.5487-2.333-4.5471.43-5.8293-.6371-5.4968-1.23-10.6169-1.9006-16.3982l5.222-.8669V18.4477l9.3274,2.3609-1.58-11.66,1.6285-.6246c1.05.6528,2.058,1.3875,3.1567,1.9434C54.4024,12.3576,58.272,14.01,61.89,16.101A26.3352,26.3352,0,0,1,67.97,20.99C72.5568,25.9615,76.95,31.114,81.3636,36.2438c5.5118,6.4067,11.2906,12.6232,16.3,19.405,2.2857,3.0942,3.0047,7.3457,4.8906,12.262,5.0313-3.4214,10.9644-6.4681,15.6143-10.87,5.7014-5.3976,11.7441-7.0135,19.1286-5.49,4.7231.9742,9.568,1.4231,14.2206,2.6358,1.5255.3977,2.618,2.4565,3.9085,3.7556a41.3488,41.3488,0,0,1-4.3633,2.7235c-3.816,1.7929-7.8723,3.1334-11.5245,5.1994-3.6226,2.0493-4.3562,5.679-4.8167,9.7848a56.677,56.677,0,0,1-3.8806,14.2456c-5.2537,13.3052-15.5077,22.263-27.3933,29.3379-3.2446,1.9313-7.6374,2.0867-11.56,2.6811-3.6725.5565-5.5343,1.99-4.43,5.9483.9262,3.319,2.5828,6.7186,2.39,9.9927-.2366,4.0207-.8923,9.3948-3.52,11.5143-2.7022,2.1795-8.4687,2.4467-12.03,1.1595-3.7948-1.3714-1.9106-5.9617-.897-9.23a3.5988,3.5988,0,0,1,1.5579-1.9008c7.96-4.3653,7.2119-11.1231,4.8017-18.1119-.4822-1.398-2.4743-3.2886-3.7107-3.2454-6.9361.2422-13.8776.8236-20.7628,1.7111-1.9426.25-3.7824,1.799-5.5317,2.96-7.0346,4.6673-14.0067,9.4289-21.0211,14.127-2.1967,1.4714-4.3127,3.2239-6.7333,4.1429-1.5747.5979-3.6329-.0775-5.4745-.1825.78-1.5545,1.1475-3.7823,2.4074-4.5558,9.1628-5.6252,18.7285-10.6176,27.7056-16.5126,5.2074-3.4195,9.65-8.0461,14.1945-12.3841.646-.6167.3254-2.8918-.2661-4.0242A79.153,79.153,0,0,0,55.6066,95.95Z"/>
        <path class="frame f-2" d="M17.4269,144.4323c4.7784-10.414,13.1832-16.3854,21.4736-21.6237,8.3385-5.2688,14.8708-11.9727,21.7036-18.7277C67.618,97.147,67.77,89.8748,65.0435,81.0051c-1.713-5.5732-1.0969-11.8823-1.3356-17.8688a4.1372,4.1372,0,0,1,1.44-2.947c4.1382-3.2418,8.4943-6.2076,12.5977-9.4906,1.1245-.9,1.6385-2.5626,2.683-4.289l7.3668.3728c1.7858-2.2587,3.3467-5.71,4.734-5.6414,2.08.1026,4.0384,2.6756,6.3764,4.4462.3474-1.1248.51-1.7294.72-2.3171.8057-2.2535,1.6267-4.5015,2.442-6.7516,1.8317,1.1607,3.5218,2.8735,5.52,3.3859,8.2829,2.1241,7.4343,9.3587,8.7365,15.8915,1.384-.81,2.2917-1.4114,3.2587-1.8941,2.6312-1.3133,5.3971-3.8443,7.9137-3.6267a240.7845,240.7845,0,0,1,24.4912,3.8871c1.0463.2007,1.7671,2.0988,2.6387,3.2106-1.2369.902-2.4319,2.5088-3.7181,2.5854a17.6241,17.6241,0,0,0-13.9839,7.5981c-1.4394,2.03-2.8985,4.9967-2.48,7.18.7072,3.689-.8517,6.1952-2.3278,9.0281-7.2764,13.9651-19.5258,22.8571-32.2895,31.0146-3.1756,2.0295-7.59,2.3049-11.5078,2.9334-3.4364.5512-4.655,1.9068-3.6345,5.3682a95.8413,95.8413,0,0,1,2.6813,11.1062c1.1111,6.5859-3.5886,15.1095-12.7748,13.4424-1.6688-.3029-4.2571-2.599-4.2083-3.8916.1148-3.0441.637-7.5146,2.6473-8.7782,6.299-3.9592,6.695-8.7051,4.7158-14.9983-.9031-2.8712-1.9989-4.3095-5.0695-4.1172-3.9866.25-7.9836.4122-11.9776.4478-7.9334.0705-11.862,6.3918-17.0659,10.745-6.23,5.2118-12.3419,10.5857-18.8312,15.4545C22.9187,143.9042,19.9164,143.8265,17.4269,144.4323Z"/>
        <path class="frame f-3" d="M17.13,147.3457c3.7613-4.7974,7.72-9.4551,11.2363-14.4258,4.94-6.9829,12.9814-10.6107,18.3573-16.673,8.2914-9.35,14.8809-20.2275,22.0218-30.5748,7.0706-10.2455,15.8107-18.07,27.9877-21.91,8.5911-2.7093,17.6672-4.3522,24.2806-11.8264,1.9789-2.2364,6.81-2.9673,10.2059-2.7085a103.8657,103.8657,0,0,1,18.0767,3.538c1.71.4453,3.0059,2.4831,4.4916,3.7908-1.79.9451-3.4891,2.4115-5.3863,2.7429-7.2425,1.2649-12.9948,5.9558-14.6891,12.4083-1.06,4.0371.009,7.2529,4.26,8.0528,4.2788.8053,8.7254.6993,13.0919,1.07a28.9873,28.9873,0,0,1,3.5356.7318,19.2735,19.2735,0,0,1-2.3507,3.0612c-7.4818,6.552-16.8,6.6177-25.9649,7.3813-1.6661.1389-3.2619,1.364-4.8487,2.1694-6.8812,3.4925-13.9986,6.4836-19.3928,12.4632-3.9606,4.39-9.5615,5.8591-15.3435,6.2962-4.4364.3354-5.882,2.0394-4.9248,6.82,1.16,5.7917,4.7612,11.4575,1.3036,17.83-2.44,4.4969-9.3661,7.5013-13.421,4.3772-1.7842-1.3746-2.5812-4.8084-2.6585-7.3428-.05-1.6431,1.6353-3.9714,3.1952-4.9187,5.8539-3.5549,7.6016-8.9614,4.0149-14.999a4.6661,4.6661,0,0,0-3.872-1.7948c-5.6888,1.0479-11.8554,1.4831-16.7763,4.1336-4.4866,2.4166-7.6519,7.3411-11.2939,11.2584-5.64,6.066-11.0372,12.3671-16.8781,18.2291-1.5749,1.5806-4.38,1.9358-6.62,2.8535Z"/>
        <path class="frame f-4" d="M191.9768,126.2136l-16.626-4.3979c-.1228,1.3808-.3286,3.6956-.5344,6.01l-10.0334-2.3488c-1.299,1.8181-3.2276,4.856-7.073,1.72-2.4056-1.9619-4.9691-3.73-7.25-5.4282-1.1965,2.5687-2.2182,4.7619-3.24,6.9551l-8.5066-4.9661c-.5039.8014-1.2989,3.1208-2.1061,3.125a8.1233,8.1233,0,0,1-4.6784-2.094c-1.8993-1.5768-3.3913-3.6338-5.15-5.3928-1.7086-1.7084-2.9295-3.0679-6.2533-1.7715-2.5381.99-7.4347-.1291-9.2294-2.1411-2.39-2.6792-4.7847-1.3872-7.0433-1.93A151.44,151.44,0,0,0,85.7088,110.03c-5.9889-.667-6.8483.54-5.9055,6.3436.4777,2.94,1.2653,5.8316,1.9413,8.7385,2.01,8.6436-2.5817,15.2887-10.4756,14.532-2.04-.1955-4.9618-2.0066-5.5836-3.751-1.0407-2.92-1.5511-6.5119,2.1221-8.89,6.2509-4.0467,7.0738-6.26,5.3649-12.731-1.2636-4.7847-3.0285-5.8113-7.9549-4.4983-3.695.9848-7.5108,1.7211-11.0005,3.2076a24.3488,24.3488,0,0,0-7.9295,5.21c-7.6967,8.0124-14.9638,16.4383-22.695,24.4156-1.1835,1.2212-3.9559.9026-5.9935,1.2962.704-1.9863.9977-4.2744,2.1931-5.8992a100.2138,100.2138,0,0,1,9.5262-11.41c4.1879-4.2054,9.0557-7.735,13.2311-11.9513a120.4827,120.4827,0,0,0,10.9014-12.7292c4.3611-5.8465,8.46-11.906,12.3814-18.059,6.6591-10.4493,15.24-18.3876,27.4034-21.8192,2.987-.8426,6.1006-1.23,9.1464-1.8726a37.5053,37.5053,0,0,0,18.2161-9.4844c2.4195-2.2325,7.1822-2.9829,10.74-2.6889,6.0849.5029,12.0994,2.1989,18.049,3.7549,1.482.3876,2.603,2.1554,3.89,3.2888-1.5165,1.0436-3.0092,2.9395-4.5537,2.9827-6.508.1821-10.3787,4.1256-13.65,8.8863-2.745,3.9948-1.6185,6.9271,2.591,9.3423,3.8474,2.2074,7.459,4.8245,11.1865,7.2426a28.1316,28.1316,0,0,0,3.827,2.3251q14.4978,6.3808,29.05,12.6375a50.394,50.394,0,0,1,6.34,2.708,16.2622,16.2622,0,0,1,3.7986,3.8019c1.864,2.2951,3.6025,4.6943,5.3426,7.0869.9867,1.3567,1.8714,2.7876,2.802,4.185-1.3354.67-2.6575,1.8794-4.0087,1.9127C191.3692,118.2589,190.6042,120.8468,191.9768,126.2136Z"/>
        <path class="frame f-5" d="M128.8928,136.9323c-1.7391.8042-3.2623,2.0917-3.971,1.74-3.9683-1.9713-7.4453-4.3244-12.1473-5.4078-4.8759-1.1235-4.3816-7.442-4.82-12.0891a59.9894,59.9894,0,0,0-1.462-7.134c-4.91-.901-9.1009-1.7131-13.3089-2.4251a41.4838,41.4838,0,0,0-6.9046-.8493c-6.0773.01-6.94,1.379-5.3281,7.2615,1.6194,5.9091,3.7441,11.8141.8593,17.9816-2.2437,4.797-6.8287,4.3652-10.7642,4.3526-1.6108-.0051-4.198-2.3542-4.6159-4.06-.886-3.6159-1.3437-7.4608,3.64-9.5354,5.0324-2.0948,6.4233-11.7362,2.4969-15.6244a5.3032,5.3032,0,0,0-4.0921-.9854c-9.5819,1.71-18.9959,2.7912-25.784,11.9063-5.4439,7.31-13.0763,13.04-20.0432,19.1209-1.2953,1.1307-4.0428.5976-6.12.8324.7547-1.8429,1.0176-4.22,2.3446-5.4413,8.1124-7.4632,16.659-14.46,24.6633-22.0328a123.7983,123.7983,0,0,0,12.0128-13.848Q62.75,91.4958,69.3957,81.8644C78.21,69.06,90.8377,62.2473,105.53,58.9948a27.762,27.762,0,0,0,14.0646-7.8943,13.1613,13.1613,0,0,1,12.3006-3.9034c5.712,1.0483,11.3951,2.3389,16.99,3.8877,1.6422.4546,2.943,2.1426,4.4,3.2653-1.63,1.1378-3.225,3.1857-4.8963,3.25-6.04.2325-9.9217,3.5-12.9776,8.1048-2.6237,3.9533-3.5606,7.6418-.081,12.2187,4.7847,6.2936,8.416,13.4506,12.7867,20.076,4.98,7.5493,11.0223,14.0715,19.0977,18.506,5.2846,2.902,5.7259,6.7752,1.3806,10.8454,2.725,3.9,8.9776,5.8224,7.2986,12.4643-2.9242.6462-5.6741,1.2051-8.3946,1.8822-.924.23-2.3893.58-2.5626,1.1775-1.8044,6.2248-5.2314,2.9342-7.8142,1.1374-2.92-2.0315-4.832-2.1177-6.9085,1.0074-1.47,2.2129-3.4465,2.1958-5.47.24-.8951-.8652-2.31-1.88-3.3758-1.7662C135.7606,144.0934,131.98,141.3284,128.8928,136.9323Z"/>
        <path class="frame f-6" d="M85.8306,136.9828c-4.1992,2.3422-6.8622,4.3808-9.87,5.3518-3.098,1-6.4972.5648-7.91-3.178-1.9-5.0335-.7072-8.0411,3.7416-10.3618,5.1848-2.7047,6.7219-12.2709,2.34-15.846-1.092-.891-3.1565-1.006-4.71-.848-10.205,1.0382-19.6006,3.0662-27.2231,11.4607-5.9321,6.5328-13.8892,11.2542-21.1082,16.56-1.0264.7544-2.9693.262-4.488.3467.1633-1.6786-.3256-4.0938.599-4.9122,4.8144-4.2616,9.548-8.9295,15.1246-11.9528C46.1257,116.1226,56.5289,105.041,65.87,92.9908c11.88-15.3251,24.6408-29.0131,44.0016-34.8984,3.5773-1.0874,6.7142-4.2234,9.5727-6.9237,3.5884-3.39,7.6349-4.7874,12.305-3.9565,5.8908,1.0482,11.7582,2.3267,17.5244,3.9109,1.5589.4283,2.7154,2.321,4.0565,3.5416-1.5953,1.0072-3.1826,2.8535-4.7873,2.8687-5.4072.0514-9.189,2.6733-12.2377,6.6472-1.1808,1.539-2.5782,3.5425-2.5257,5.2938.3207,10.6957-6.81,17.4484-12.97,24.4858-3.5472,4.0523-8.2127,7.228-12.6992,10.3291-5.3125,3.6721-6.2737,6.1181-3.6866,12.0486a31.4424,31.4424,0,0,1,1.8975,5.1145c1.3251,5.5015-.2235,6.9839-6.4745,5.4752.3517,3.4316.7621,6.6258.9714,9.8331a34.4633,34.4633,0,0,1-.2927,4.6246c-1.5379-.5817-3.0838-1.1435-4.6086-1.7576a8.14,8.14,0,0,1-1.2356-.773c-2.0605,3.4915-4.0116,5.0282-6.45.2848A6.1913,6.1913,0,0,0,85.8306,136.9828Z"/>
        <path class="frame f-7" d="M14.7787,136.3478c.6478-1.9519.67-3.428,1.3658-3.89a182.0743,182.0743,0,0,1,15.5362-9.7048c5.03-2.6532,10.87-3.9136,15.5946-6.9635,5.32-3.4348,9.7911-8.1854,15.1281-12.7924-9.8771-4.5721-14.4011-12.5833-18.93-20.614-.722-1.28-1.6611-3.2391-2.713-3.3891-3.8241-.5452-4.9359-3.7354-7.2324-5.9C30.4146,70.16,29.7216,67.59,32.4077,63.48c-2.1208-.3668-4.4609-.1094-5.007-.9789-2.56-4.0757-6.9437-8.903-6.2363-12.616.7525-3.95.2-5.5067-2.0522-8.1094-2.4835-2.87-1.2914-4.5434,5.08-7.6166l-2.9867-1.7a2.6077,2.6077,0,0,0,.0157-.3908c-.1114-7.4107,5.4882-6.1821,10.1624-7.1951,11.1573-2.418,20.1225,2.3037,29.3676,7.361a147.5085,147.5085,0,0,0,21.6678,9.5275c6.9119,2.4393,10.7018,6.9178,12.153,13.8284a20.8447,20.8447,0,0,0,1.2418,4.3044c1.4766,3.2665,3.7364,4.653,7.0877,2.3251,5.7119-3.9674,11.6622-7.6508,17.0132-12.0594,4.1953-3.4563,8.5174-5.0043,13.7678-4.0708,5.2406.9317,10.5316,1.7019,15.6616,3.0655,1.7193.457,3.0113,2.5217,4.4986,3.8516-1.5119,1.0456-2.8962,2.6833-4.5562,3.0408-10.8829,2.3437-14.1118,5.56-15.5816,16.2017-1.9286,13.9638-8.8129,25.651-18.8821,34.7839-5.7225,5.19-12.4939,10.2444-21.3184,10.8016-6.7863.4284-7.339,1.7488-5.948,8.3327,1.1613,5.4972,3.1215,10.8515.6187,16.5827-1.99,4.5562-10.1382,7.1244-14.1,4.0907-2.54-1.9448-1.3553-10.3648,1.7225-12.24a11.9642,11.9642,0,0,0,2.2322-18.2163,5.0143,5.0143,0,0,0-3.02-1.3759c-12.0941-.7713-23.2059,1.0209-33.0916,9.2986-5.69,4.7647-12.94,7.7337-19.6754,11.1407C20.3645,136.3966,17.8192,136.0274,14.7787,136.3478Z"/>
</svg>
