<?xml version="1.0" encoding="utf-8"?>
<!-- Generator: Adobe Illustrator 24.0.1, SVG Export Plug-In . SVG Version: 6.00 Build 0)  -->
<svg version="1.1" id="Layer_1" xmlns="http://www.w3.org/2000/svg" xmlns:xlink="http://www.w3.org/1999/xlink" x="0px" y="0px"
	 viewBox="0 0 84.6 80" style="enable-background:new 0 0 84.6 80;" xml:space="preserve">
<style type="text/css">
	.st0{fill:#000000;}
</style>
<title>pusit-logo-header</title>
<g id="Layer_2_1_">
	<g id="Layer_1-2">
		<path class="st0" d="M16,24.6c-0.4-0.1-0.7-0.1-1.1-0.2c-1.7-0.1-2.4-1.4-1.5-2.9c0.2-0.3,0.4-0.5,0.7-0.9
			c-0.8,0.1-1.5,0.7-1.7,1.5c-0.3,1.1-0.2,2.3,0.9,2.7c0.9,0.3,2,1.2,2.9-0.1c1.5-0.4,1.4-1.6,1.4-2.7c0-0.3-0.3-0.6-0.5-0.9
			l-0.3,0.1c0.5,0.9,0.4,2-0.4,2.6C16.3,24.1,16.1,24.3,16,24.6z M1.2,23.8C1.4,26,2.3,28,3.8,29.7l-2.5-6C1,20.3,1.7,17,3.3,14
			c2-3.8,4.8-6.5,9-7.4C13.2,6.3,14.1,6.1,15,6c2-0.1,4-0.1,6-0.2c3-0.2,6-0.5,9-0.5s6.2,0.1,9.3,0.2c0.2,0,0.4-0.1,0.6-0.2V5
			c-1.1-0.1-2.1-0.3-3.2-0.3c-1.7,0-3.3,0.1-5,0.1c-1.4,0-2.8,0-4.3,0.1c-1,0-2.1,0.2-3.1,0.2c-1.7,0-3.5-0.3-5.2-0.3
			c-1.3-0.1-2.7,0-4-0.1c-0.8-0.3-1.5-1.1-1.6-1.9c0-1,0.7-1.8,1.7-1.8c0.6,0,1.2-0.1,2-0.1C16,0.1,14.6,0,13.5,0.6
			C12,2,12,3.3,13.5,5.1c-0.7,0.3-1.4,0.5-2.1,0.7c-1.1,0.3-2.1,0.8-3.1,1.3c-3.5,2.6-6.1,6.3-7.2,10.5C0.5,19.7,0.5,21.8,1.2,23.8z
			 M24.9,39.1l0.2-0.1c0.1,0.2,0.4,0.3,0.4,0.5c0.1,1.5,0.3,3.1,0.4,4.6c0,0.5,0.1,1,0.3,1.5c0.1,0.3,0.4,0.5,0.7,0.6
			c0.2,0,0.5-0.3,0.6-0.6c0.4-1.3,0.6-2.6,0.9-3.8c0.1-0.6,0.3-1.1,0.6-1.9l0.6,1.5c0.8,2,1.8,4,1.3,6.3c-0.3,1,0.3,1.2,1.2,1.2
			c0.1-0.9,0.2-1.7,0.3-2.6c0.2-1.2,0.1-2.4,1.3-3.2c0.1-0.1,0.2-0.5,0.1-0.7c-0.4-1.2-0.5-2.4-0.3-3.7c0.2-2.2,0.3-4.5,0.1-6.8
			c0.1-0.6-0.3-1.1-0.9-1.2c0,0,0,0-0.1,0c-1-0.3-1.9,0.3-2.2,1.3c0,0,0,0,0,0.1c-0.3,1-0.5,2.1-0.8,3.2l-0.4-0.1
			c-0.1-0.8-0.1-1.7,0-2.5c0.3-0.7,0-1.5-0.7-1.8c-0.7-0.3-2-0.6-2.4-0.3c-1.1,1-2,0.5-3.4,0.4c0.4-0.4,0.7-0.7,0.9-0.7
			c2.2-0.6,4.5-1,6.7-1.2c2.6-0.2,5.2,0.2,7.9,0.1c2.3-0.2,4.6-0.2,6.8,0c3.3,0.4,6.6,0.1,9.9,0.4c2.1,0.2,4.2,0.5,6.3,0.9
			c0.4,0.1,0.7,0.5,1.2,0.8c-1.2,0.4-2.5,0.3-3.5-0.4c-1-0.5-2.2-0.1-2.7,0.9c-0.1,0.3-0.2,0.6-0.2,0.9c-0.1,1.5-0.2,3-0.3,4.5
			c-0.6,0.1-1.1,0.1-1.7,0c-0.5-0.3-1.2-0.7-1.3-1.2c-0.2-1-0.3-2-0.2-3c0-0.4,0.5-0.8,0.7-1.1c0.3,0.3,0.6,0.5,0.8,0.9
			c0.3,0.6,0.6,1.2,0.8,1.8l0.4-0.2c-0.2-0.9-0.5-1.8-0.8-2.6c-0.4-0.7-1.3-1-2-0.7c-0.4,0.2-0.7,0.6-0.8,1.1
			c-0.1,3.6-0.1,7.3-0.1,10.9c0,0.3,0.2,0.5,0.4,0.7c0.9,0.5,1.5,1.5,1.5,2.6c0,0.1,0.1,0.2,0.2,0.2c0.3-1.2,0.6-2.4,0.9-3.6
			s0.8-2.4,1.2-3.8c1,1.7,0.7,3.4,1.7,4.7c0.5,0.7,0.2,1.8,0.5,2.6c0.1,0.4,0.5,0.7,0.8,1c0.3-0.3,0.6-0.7,0.9-1.1
			c0.1-0.3,0-0.6,0-0.9c0.1-0.7,0.1-1.6,0.5-1.8c1.3-0.7,0.6-2,1.1-3c0.1-0.1,0-0.3,0.1-0.5c0.4-0.8,1-1.5,1.5-2.2
			c0.2-0.2,0.8-0.1,1.2-0.1c1.2,0.1,2.2-0.7,2.4-1.9c0.1-0.7,0.1-1.5,0-2.2c1.9,1.3,7.1,1.4,8.6,0c-0.3,0-0.6,0-0.8,0
			c-2.5,1-4.8,0-7.1-0.8c-0.6-0.2-1.1-0.5-1.6-0.9c-1.1-1.1-2.1-2.4-3.2-3.5c-0.2-0.2-0.5-0.4-0.8-0.4C60.7,28,59.8,28,58.9,28
			c-3.3,0-6.5,0-9.8,0l-24.8,0c-0.8-0.1-1.6,0.3-2.1,1c-0.6,0.8-1.3,1.6-2,2.2c-2,2-4.6,2.5-7.4,2.5c-0.5,0-1.1-0.1-1.6-0.1v0.5
			c1.4,0.1,2.7,0.2,4.1,0.1c1.3-0.2,2.5-0.4,3.7-0.8c-0.2,0.4-0.4,0.9-0.5,1.3c-0.1,1.2,0,2.5,0,3.7s0.8,1.4,1.5,1.6
			c0.4,0.1,1-0.3,1.5-0.4l3.2,3.8l0.3-0.1L24.9,39.1z M2.7,23.2H3c0.1-0.9,0.2-1.8,0.4-2.7c0.3-1.7,0.3-3.7,1.3-5
			c1.1-1.8,2.6-3.4,4.2-4.7c2.9-2.1,6-1.7,9.1-1.8c2.4-0.1,4.8,0.8,7.1,0.5c1.7-0.2,3.5-0.1,5.2,0.1c0.7,0.1,1.4,0.3,2,0.4
			c0.6,0,1.2,0,1.7-0.1c0.6-0.2,1.3-0.2,1.9-0.3c2.8,0.3,5.6,0.7,8.4,1.1c0.8,0.1,1.7,0.4,2.3-0.6c0.1-0.2,0.5-0.1,0.8-0.2
			c2.9-0.4,5.8,0.7,8.6-0.1c0.3-0.1,0.7-0.1,1,0c2.7,0.6,5.6,0.6,8.3,0c2.2-0.4,4.5-0.3,6.7,0.2c2.8,0.5,5.3,2.1,7,4.4
			c0.2,0.2,0.5,0.4,0.7,0.6c0.6,0.5,1.1,1,1.5,1.7c1,2.1,0.7,4.4,0.9,6.5c0.1,0.8-0.1,1.6-0.4,2.4c-2,3.6-4.3,6.8-9,6.9
			c-0.6,0-1.2,0-1.8,0.1l-0.1,0.3c0.5,0.2,1,0.4,1.6,0.5c1.2-0.1,2.4-0.3,3.5-0.7c2.9-1.1,5.1-3.3,6.2-6.2c1.7-4,1.2-8.6-1.3-12.1
			C80,13,78.7,12,77.8,10.8c-1.3-1.5-3.2-2.5-5.2-2.6c-1.6-0.3-3.3-0.1-4.8-0.4c-4-0.8-8-0.5-12-0.3c-1.3,0-2.6,0-3.9,0
			c-0.7,0-1.3-0.1-2-0.1c-0.5,0-1,0.2-1.4,0.1c-1.6-0.4-3.2-0.5-4.9-0.3c-1.7,0.1-3.5,0-5.2-0.1c-1.1,0-2.1,0-3.2,0.1
			c-0.6,0-1.3,0-1.9,0.1c-1.5,0.5-3.2,0.5-4.7,0c-0.8-0.2-1.7-0.2-2.5-0.1c-0.3,0-0.6,0.3-0.8,0.2c-1.4-0.8-2.9-0.2-4.4-0.2
			c-2.2-0.2-4.3,0-6.5,0.3C11.6,8.3,8.6,9,6.4,11.4c-2.7,3-4.4,6.4-4.1,10.6C2.4,22.4,2.5,22.8,2.7,23.2z M0.1,40.2L0,40.8
			c0.5,0.3,1,0.5,1.5,0.7c1.1,0.3,2.3,0.3,3.5,0.6c1.9,0.4,3.8,0.8,5.7,1.2c2.8,0.7,5.4,2,7.6,3.7c1.7,1.2,2.4,3.7,1.3,4.8
			c-1,1.1-2.3,2-3.6,2.7c-3.5,1.4-7,2.6-10.9,2.5c-0.6,0-1.3,0.1-1.4,0.9c-0.1,0.9-0.1,1.8-0.1,2.8C4,66,4.4,71.3,4.9,76.7
			c0,0.4,0.1,0.9,0.3,1.3c0.1,0.2,0.4,0.3,0.6,0.4c0.1,0,0.4-0.2,0.4-0.4c0.1-0.4,0.2-0.8,0.2-1.3c0.1-1.9,0.2-3.9,0.4-5.8
			s0.2-3.7,0.3-5.5c0-1.3-0.1-2.7,0-4c0-0.4,0.6-0.9,1-1c1.2-0.4,2.4-0.7,3.7-1c2.2-0.7,4.3-1.4,6.5-2.1c2.7-0.7,4.8-2.9,5.4-5.7
			c0.4-1.6,0-3.3-1.1-4.5c-1-1.2-2.3-2.3-3.7-3c-2.4-1.5-5.1-2.4-7.9-2.9c-3.1-0.5-6.2-0.8-9.4-1.2C1.1,40,0.6,40.1,0.1,40.2
			L0.1,40.2z M74.8,38.2l-0.4,0.1c-0.2,0.2-0.3,0.4-0.3,0.6c-0.3,2-0.7,4-0.9,6c-0.1,0.9-0.3,1.3-1.2,1.4c-1.5,0.2-2.9,0.4-4.4,0.7
			c-0.3,0.1-0.9,0.4-0.8,0.6c0,0.4,0.3,0.8,0.6,1c0.5,0.2,1,0.3,1.6,0.3c0.9,0.1,1.8,0.2,2.7,0.2c0.9,0,1,0.5,1,1.2
			c0,1.9,0,3.8,0.1,5.8c0.1,1.5,0.2,3,0.3,4.5c0,1.5,0.1,2.9,0.3,4.4c1,4.5,2.1,8.9,3.3,13.4c0.1,0.4,0.6,1.1,0.9,1.1
			c0.8-0.1,0.6-0.8,0.5-1.3c0-0.1-0.1-0.2-0.1-0.3c-0.7-5-1.6-10-2-15c-0.4-4.1-0.3-8.2-0.4-12.4c0-0.4,0.3-0.8,0.7-1
			c2.3-0.4,4.5-0.7,6.8-1c0.6-0.1,1.2-0.1,1-0.9s-0.7-0.8-1.3-0.7c-0.6,0.1-1.2,0.2-1.8,0.2c-1.5-0.1-2.9-0.3-4.4-0.5
			c-0.7-0.1-1.1-0.3-1.1-1.1c0-2,0-3.9,0-5.9C75.2,39.1,75.1,38.7,74.8,38.2L74.8,38.2z M38.5,52c-0.1,0.4-0.1,0.8-0.1,1.2
			c0.3,1.4,0.7,2.8,1,4.2c0.4,1.3,0.6,2.7,0.6,4.1c0,2.4-0.6,4.8-1.7,7c-1.6,2.9-5.2,3.8-7.3,0.8c-1.5-2-2.5-4.2-3-6.7
			c-0.3-1.6-0.5-3.2-0.7-4.7c-0.2-2.1-0.4-4.2,0.6-6.2c0.2-0.3-0.1-1-0.3-1.4c-0.5,0.3-0.8,0.5-0.9,0.8c-0.6,1.7-1,3.5-1.4,5.3
			c-0.6,4.5-0.1,9.1,1.5,13.3c0.3,0.7,0.7,1.4,1.1,2.1c0.4,0.5,0.8,1,1.3,1.5c1.3,1.1,3,1.8,4.7,1.7c0.9-0.1,1.8-0.3,2.6-0.7
			c0.9-0.3,1.7-0.8,2.3-1.4c3-3.9,3.9-9,2.4-13.6c-0.3-1-0.5-2-0.8-2.9s-0.7-2.2-1.1-3.3C39.4,52.6,39,52.4,38.5,52z M53.9,51.6
			v-0.5c-0.3-0.2-0.7-0.3-1.1-0.3c-1,0.1-2,0.4-3,0.6c-2.5,0.8-4.8,1.9-5.9,4.6c-0.8,1.6-0.3,3.5,1.3,4.4c0,0,0.1,0,0.1,0
			c1,0.6,2.1,1.3,3.1,1.8c2.8,1.4,4.3,3.9,5.5,6.6c0.4,1,0.6,2.1,0.4,3.2c-0.5,2.3-0.9,4.8-2.6,6.7c-0.2,0.2,0,0.8,0,1.2
			c0.4-0.1,0.9-0.1,1.2-0.4c0.4-0.5,0.8-1,1.2-1.6c2-2.5,3-5.6,3-8.8c0-4.9-3.1-7.7-7.1-9.7c-3-1.5-3-3.2-1-5.2c1-1,2.7-1.4,4.1-2.1
			C53.3,52,53.6,51.8,53.9,51.6L53.9,51.6z M65,25.4l-0.2,0.1c0.1,0.4,0.3,0.8,0.5,1.1c1.8,2.8,4.2,4.5,7.8,3.9
			c2.5-0.4,6.4-3.8,7-6.1c0.6-2.4,0.1-4.9-1.2-6.9c-1.3-2.2-3.1-4.1-5.8-4.4c-1.8-0.2-3.6-0.3-5.5-0.2c-1.4,0-2.7,0.2-4,0.6
			c-2.4,0.8-4.6,1.9-7,2.9c-0.9,0.5-2,0.8-3,1c-3.1,0.4-6.2,0.7-9.4,0.8c-3.4,0.1-6.8-0.1-10.2-0.5c-2.2-0.4-4.3-1.1-6.3-1.9
			c-2-0.8-3.8-2-5.8-2.6c-1.9-0.4-3.9-0.7-5.8-0.8c-1.9-0.3-3.8,0.1-5.4,1c-2.9,1.4-4.9,4-5.5,7.1c-0.3,1.4,0.3,3.3,1.3,3.9
			c0-0.2,0-0.5,0-0.7c-0.6-2.5-0.3-4.8,1.5-6.8c1.2-1.5,2.7-2.6,4.4-3.3c2.3-0.8,4.6-0.3,6.8-0.1c1.3,0.1,2.6,0.5,3.7,1.3
			c0.8,0.4,1.7,0.8,2.6,1c1.6,0.9,3.2,1.6,4.9,2.2c1.9,0.5,3.8,0.7,5.8,0.8c4.1,0.1,8.2,0.2,12.3,0.1c2.4,0,4.7-0.4,7.1-0.7
			c0.4-0.1,0.8-0.2,1.2-0.5c2.6-1.1,5.1-2.3,7.7-3.4c0.4-0.1,0.8-0.1,1.2-0.1c0.8,0,1.6-0.1,2.3-0.3c3.7-0.8,7,0,9.4,3.1
			c1.6,2,2.8,4.4,1.7,7c-0.6,1.6-1.6,3-2.8,4.1c-3.2,2.6-7.2,2.4-9.9-1.1C65.8,26.5,65.4,26,65,25.4z M52.3,23.6
			c-0.8,0.7-1.8,1.6-2.8,2.4c-1.2,0.9-2.2,0.7-3.1-0.5c-0.2-0.3-0.5-0.6-0.9-1c-0.1,0.4-0.2,0.8-0.2,1.2c0,0.7-0.4,0.9-1,0.8
			l-3.6-0.6l-0.2-1.5c-0.7,0.5-1.2,0.9-1.8,1.3c-1.2,1-2.9,0.8-3.9-0.4c0,0,0,0,0,0c-0.5-0.7-1.2-1.4-1.9-2.2c0,0.3,0,0.5-0.1,0.8
			c-0.2,0.5-0.3,1.1-0.7,1.3c-0.8,0.3-1.6,0.9-2.5,0.1s-2-1.6-2.9-2.4c0,0.9-0.1,1.8-1.5,1.8c-0.9-0.7-0.5-1.7-0.5-2.6
			c0.1-0.7,0-1.5-0.3-2.1c-1-1.3-2-2.5-3.1-3.6c-0.4-0.3-0.8-0.5-1.2-0.7c0.1,0.3,0.2,0.5,0.3,0.8c1,1.3,2,2.5,3,3.9
			c0.3,0.4,0.5,1,0.5,1.5c0,1.1-0.3,2.3-0.3,3.5c0,0.4,0.2,0.8,0.5,1.1c0.5,0.2,1.1,0.3,1.7,0.3c2.7,0.1,5.4,0.4,8.2,0.4
			c4.3,0.1,8.6,0.1,12.9,0.1h15c-1.6-4.5,0.2-7.9,3.3-10.8c-0.4,0-0.7,0.1-1,0.2c-0.8,0.8-1.7,1.5-2.4,2.4c-1.2,1.3-2,2.6-1.3,4.4
			c0.1,0.6,0.1,1.1-0.2,1.7c-0.1,0.3-0.8,0.7-0.8,0.6c-0.4-0.3-0.7-0.6-0.8-1.1c-0.1-0.6-0.1-1.3,0-2c-0.8,1-1.5,2-2.2,2.8
			s-1.9,1.4-2.9,0.2C53.2,25.1,52.7,24.4,52.3,23.6z M64.9,15.6l-0.2-0.5c-0.5,0.2-1.1,0.3-1.6,0.6c-1,0.5-2,1-3,1.5
			c-1,0.4-2.1,0.8-3.1,1.1c-1.2,0.4-2.4,0.7-3.6,0.9c-1.9,0.3-3.9,0.4-5.8,0.5c-2.1,0.1-4.3,0.3-6.4,0.4S37,20,35,19.9
			c-0.5-0.1-0.9-0.2-1.3-0.3c-0.7-0.1-1.4-0.2-2-0.3c-0.4,0-0.7,0-1.1-0.1c-2.8-1.3-5.6-2.6-8.4-3.9c-0.4-0.2-0.9-0.3-1.3-0.4
			l-0.2,0.5c1.4,0.8,2.8,1.6,4.3,2.2c1,0.3,1.7,1.1,1.9,2.1h-1.2L25.4,20c0.7,0.5,1.5,1.1,2.1,1.6c0.7,0.7,1.3,1.4,1.9,2.1
			c1-0.3,0.9-0.8,0.5-1.5c-0.2-0.4-0.2-0.8,0-1.1c0.1-0.2,0.7-0.2,1-0.2s0.9,0,1.4,0c0.5-0.1,1.1-0.2,1.6-0.2
			c3.4,0.1,6.8,0.3,10.2,0.3c2.8,0,5.7-0.2,8.5-0.2c0.9,0,1.7,0.1,2.5,0.3c1.1,0.3,1.3,0.9,0.6,1.8c-0.6,0.7-0.8,1.7-0.4,2.5
			c0.3-2.8,3-3.5,4.5-5.3c-0.6,0-1.3,0.1-1.9,0.2c-0.4,0-0.8-0.1-1.1-0.2c0.2-0.4,0.3-1,0.7-1.1c1.5-0.7,3.2-1.3,4.7-2
			C63.2,16.6,64,16.1,64.9,15.6L64.9,15.6z M60,75.1l0.4,0.8c0.3-0.3,0.7-0.5,0.8-0.8c0.2-0.5,0.4-1,0.5-1.6
			c0.8-4.6,1.8-9.2,2.5-13.8c0.3-1.9,0.5-3.8,0.5-5.8c0-0.4-0.7-1-1.1-1c-1.1-0.1-2.2-0.1-3.2,0c-0.4,0.1-0.9,0.3-1.3,0.5
			c0.3,0.4,0.6,0.8,0.9,1.1c0.4,0.4,1.2,0.6,1.4,1.1c0.4,0.9,0.6,1.8,0.5,2.8c-0.1,2.2-0.3,4.3-0.6,6.5C61,68.3,60.5,71.6,60,75.1z
			 M47.4,5.2v0.3h0.8c3.2,0.1,6.5,0.1,9.7,0.3c0.9,0,1.8,0.3,2.6,0.3c3,0.1,6.1-0.1,9.1,0.2c3.2,0.1,6.3,1.3,8.8,3.4
			c2.4,2.1,4,4.8,4.8,7.8c0.7,2.3,0.9,4.7,0.6,7c1.4-3.3,0.4-6.4-0.9-9.3c-2.1-4.8-5.3-8.5-10.8-9.5c1.5-2.2,1.5-2.7,0.3-4.4
			c-0.5-0.7-1-0.8-2.2-0.5c1.2,0.5,1.2,0.5,1.6,1.9C72.3,3.7,71.9,4.7,71,5c-0.2,0.1-0.5,0.1-0.7,0.1c-3.8,0-7.5,0-11.3,0
			c-0.9,0-1.8-0.4-2.7-0.4c-2.1,0-4.1,0.2-6.2,0.4L47.4,5.2z M35.8,42L35.8,42c0,0.4-0.1,0.8,0,1.2c0.2,0.4,0.6,0.8,1,1
			c0.7,0.3,0.8-0.3,0.9-0.9c0.1-0.5,0.2-1.1,0.2-1.6c0.1-1.9,0.2-3.7,0.4-5.6c0.1-1.4,0.3-2.8,0.4-4.1c0.1-0.9-0.4-1.2-1.1-1.3
			c-0.4,0-0.9,0-1.3,0c-1,0-1.4,0.6-1.2,1.6c0.1,0.8,0.2,1.6,0.2,2.4c0,0.9-0.4,2,0,2.6C36.4,38.8,35.9,40.3,35.8,42L35.8,42z
			 M44.4,33h0.3c0-0.9,0.4-1.9-0.7-2.4c-0.7-0.4-1.6-0.5-2.4-0.3c-0.5,0.2-0.8,1.3-0.8,1.9c0,2.3,0.2,4.6,0.3,6.9
			c0.1,0.6,0.1,1.2,0,1.7c-1,2.5,0.6,4.8,0.3,7.3c0.5-1.5,0.9-3.1,1.1-4.7c0.1-1.1,0.2-2.2,0.2-3.2c0.1-0.6,0-1.2-0.2-1.7
			c-0.9-1.5-0.4-3.3-0.7-4.9c-0.1-0.5,0.3-1.2,0.7-1.7c0.5-0.7,1.2-0.6,1.6,0.2C44.2,32.5,44.3,32.7,44.4,33z M49.7,31.4
			c-0.1-0.8-0.8-0.9-1.5-0.9c-1-0.1-1.8,0.3-1.9,1.3c-0.1,2.1-0.8,4.3,0.3,6.4c0.1,0.4,0.1,0.8,0,1.1c-0.5,1.4,0.1,2.7,0.5,4.1
			c1-0.9,1.5-2.3,1.3-3.7c-0.6-2.1-1-4.2-1.2-6.4c0-0.8-0.2-1.5,0.5-1.9C48.4,31.3,49.1,31.3,49.7,31.4L49.7,31.4z M43.9,0.2v0.6
			C44.8,0.9,45.7,1,46.7,1c2.1,0,4.2-0.1,6.3-0.1c2.6,0,5.2,0,7.8,0c0.4,0,0.8-0.1,1.2-0.2C55.9,0.2,49.9,0,43.9,0.2z M63.4,46.8
			c1.1-0.9,1.8-2.2,1.9-3.5c0.1-0.8,0.1-1.2-0.8-1.4s-1.8-0.3-2.1,0.8C62,44,61.7,45.5,63.4,46.8z M20.4,25.1c-1.6,2-3,4.1-6,4.3
			s-4.8-1-6.8-3c0.3,2.1,2.8,3.6,5.8,3.8S20.2,28,20.4,25.1L20.4,25.1z M39.2,0.6C38.3,0,26.1-0.2,23.7,0.3c0,0.1,0.1,0.4,0.1,0.4
			c4.9,0.1,9.8,0.2,14.6,0.2C38.7,0.9,38.9,0.7,39.2,0.6z M73.6,21.3c-0.5-1.5-2-2.6-3.6-2.5c-2.1,0.2-4.1,1.5-4.3,3.5
			c-0.2,2.5-0.1,3.9,1.8,4.6c-1.8-2.9-1.2-5.7,0-6.5c0.9-0.5,1.9-0.9,3-1C72,19.2,72.6,20.7,73.6,21.3z M17.5,26.5
			c1.6-0.3,2.4-2.1,2.2-4.5c-0.2-1.8-2.5-3.6-4.4-3.6s-3.3,0.9-3.4,2.3c1.1-0.5,1.6-2,3-1.7c1.2,0.2,2.4,0.2,3.3,1.4
			C19.5,22.3,19.2,24.9,17.5,26.5z M3.5,25.6l-0.3,0.2c0.1,0.5,0.2,0.9,0.4,1.4C4,27.8,4.5,28.4,5.1,29c2.2,2.3,4.6,4,7.9,3.8
			c0.5-0.1,0.9-0.2,1.3-0.5V32C9.1,32.5,5.8,29.9,3.5,25.6L3.5,25.6z M71.4,21.1c1,1.3,1.3,2.8,0.6,3.3c-0.8,0.4-1.6,0.5-2.5,0.3
			c-1.2-0.4-1.5-1.6-1.1-3c-0.2,0.1-0.4,0.3-0.5,0.6c-0.4,1.1,0.1,2.3,1.1,2.9c0.9,0.5,3.4,0.3,4-0.3c0.1-0.1,0.2-0.3,0.3-0.5
			C73.6,22.9,72.8,21.5,71.4,21.1L71.4,21.1z M35.2,22.3c-0.5,1-0.2,2.3,0.9,2.9c0.1,0.1,0.2,0.1,0.3,0.1c1,0.4,2.5-0.4,3-2.4
			c-0.5,0.3-0.8,0.5-1.1,0.6s-1,0.6-1.2,0.5C36.4,23.6,35.8,23,35.2,22.3z M50.2,22.2c-0.3,1-0.5,1.8-1.6,2.2
			c-1.5,0.5-1.3-1.2-2.4-1.5c0.3,0.8,0.5,1.4,0.7,2c0,0.1,0.1,0.2,0.1,0.3c0.4,0.6,1.3,0.8,1.9,0.4c0.2-0.1,0.3-0.2,0.4-0.4
			C49.9,24.3,50.7,23.5,50.2,22.2L50.2,22.2z M47.3,44.4c-0.7,0.8-0.5,3.2,0.3,4.6C47.4,47.5,48.7,45.9,47.3,44.4z M18,0.7l3.6,0.2
			C21.1,0,19.3-0.1,18,0.7z M67.7,1.1V0.6l-3-0.2v0.5L67.7,1.1z M42.8,0.8l0.1-0.5c-0.7,0-1.4-0.1-2.2-0.1c-0.1,0-0.3,0.3-0.2,0.4
			c0.1,0.2,0.2,0.3,0.4,0.3C41.5,0.9,42.2,0.8,42.8,0.8z"/>
		<path class="st0" d="M24.9,39.1v4.2l-0.3,0.1l-3.2-3.8c-0.5,0.2-1.1,0.6-1.5,0.4c-0.7-0.2-1.6-0.4-1.5-1.6s0-2.5,0-3.7
			c0.1-0.5,0.2-0.9,0.5-1.3c-1.2,0.3-2.5,0.6-3.7,0.8c-1.4,0-2.7,0-4.1-0.1v-0.5c0.5,0,1.1,0.1,1.6,0.1c2.7,0,5.3-0.5,7.4-2.5
			c0.7-0.7,1.4-1.4,2-2.2c0.5-0.7,1.3-1.1,2.1-1L49.1,28c3.3,0,6.5,0,9.8,0c0.9,0,1.8,0.1,2.7,0.2c0.3,0,0.6,0.2,0.8,0.4
			c1.1,1.2,2.1,2.4,3.2,3.5c0.5,0.4,1,0.7,1.6,0.9c2.3,0.8,4.6,1.8,7.1,0.8c0.3,0,0.6,0,0.8,0c-1.5,1.3-6.8,1.2-8.6,0
			c0.1,0.7,0.1,1.5,0,2.2c-0.2,1.1-1.3,1.9-2.4,1.7c-0.4,0-1-0.1-1.2,0.1c-0.6,0.7-1.1,1.4-1.5,2.2c-0.1,0.1,0,0.3-0.1,0.5
			c-0.5,0.9,0.2,2.3-1.1,3c-0.4,0.2-0.4,1.2-0.5,1.8c-0.1,0.3,0.1,0.7,0,0.9c-0.3,0.4-0.6,0.8-0.9,1.1c-0.3-0.3-0.7-0.6-0.8-1
			c-0.2-0.9,0-2-0.5-2.6c-1-1.4-0.7-3.1-1.7-4.7c-0.5,1.4-0.9,2.5-1.2,3.8s-0.6,2.4-0.9,3.6c0,0-0.2-0.1-0.2-0.2
			c0-1.1-0.5-2-1.4-2.6c-0.2-0.2-0.4-0.4-0.4-0.7c0-3.6,0-7.3,0.1-10.9c0.1-0.5,0.4-0.9,0.8-1.1c0.7-0.3,1.6,0,2,0.7
			c0.4,0.9,0.6,1.7,0.8,2.7l-0.4,0.2c-0.2-0.6-0.5-1.2-0.8-1.8c-0.2-0.3-0.5-0.6-0.8-0.9c-0.3,0.4-0.7,0.7-0.7,1.1
			c-0.1,1-0.1,2,0.2,3c0.1,0.5,0.8,0.9,1.3,1.2c0.6,0.1,1.1,0.1,1.7,0c0.1-1.5,0.3-3,0.3-4.5c0-1.1,0.9-2,2-2c0.3,0,0.6,0.1,0.9,0.2
			c1,0.7,2.4,0.9,3.5,0.4c-0.4-0.3-0.8-0.8-1.2-0.8c-2.1-0.4-4.2-0.7-6.3-0.9c-3.3-0.2-6.6,0-9.9-0.4c-2.3-0.2-4.6-0.2-6.8,0
			c-2.6,0.1-5.3-0.3-7.9-0.1c-2.3,0.2-4.5,0.6-6.7,1.2c-0.3,0.1-0.5,0.4-0.9,0.7c1.3,0.2,2.3,0.6,3.4-0.4c0.4-0.4,1.6,0,2.4,0.3
			c0.7,0.3,1,1,0.8,1.7c-0.1,0.8-0.1,1.7,0,2.5l0.4,0.1c0.3-1,0.5-2.1,0.8-3.2c0.2-1,1.2-1.6,2.1-1.4c0,0,0,0,0.1,0
			c0.6,0,1,0.6,1,1.1c0,0,0,0,0,0.1c0.1,2.3,0.1,4.5-0.1,6.8c-0.2,1.2-0.1,2.5,0.3,3.7c0.1,0.2,0,0.6-0.1,0.7
			c-1.2,0.8-1.2,2-1.3,3.2c-0.1,0.8-0.2,1.7-0.3,2.6c-0.9,0-1.5-0.2-1.2-1.2c0.6-2.3-0.5-4.2-1.3-6.3L29,40
			c-0.2,0.8-0.4,1.3-0.6,1.9c-0.3,1.3-0.6,2.6-0.9,3.8c-0.1,0.3-0.4,0.6-0.6,0.6c-0.3-0.1-0.6-0.3-0.7-0.6c-0.2-0.5-0.3-1-0.3-1.5
			c-0.1-1.5-0.3-3.1-0.4-4.6c0-0.2-0.2-0.4-0.4-0.5L24.9,39.1z"/>
		<path class="st0" d="M2.7,23.2c-0.2-0.4-0.3-0.8-0.3-1.3c-0.3-4.2,1.4-7.6,4.2-10.6c2.2-2.4,5.2-3.1,8.1-3.8
			c2.1-0.4,4.3-0.5,6.5-0.3c1.4,0,2.9-0.7,4.4,0.2c0.2,0.1,0.5-0.2,0.8-0.2c0.8-0.1,1.7-0.1,2.5,0.1c1.5,0.5,3.2,0.5,4.7,0
			c0.6-0.1,1.3-0.2,1.9-0.1c1.1,0,2.1-0.1,3.2-0.1c1.8,0,3.5,0.2,5.2,0.1C45.4,6.9,47,7,48.6,7.4C49,7.5,49.5,7.3,50,7.3
			c0.7,0,1.3,0,2,0.1c1.3,0,2.6,0.1,3.9,0c4-0.2,8-0.5,12,0.3c1.6,0.3,3.2,0.2,4.8,0.4c2,0.2,3.8,1.1,5.1,2.7
			c0.9,1.2,2.2,2.2,3.1,3.5c2.6,3.5,3.1,8.1,1.3,12.1c-1.1,2.8-3.4,5.1-6.2,6.2c-1.1,0.4-2.3,0.6-3.5,0.7c-0.5-0.1-1.1-0.2-1.6-0.5
			l0.1-0.3c0.6,0,1.2-0.1,1.8-0.1c4.7-0.1,7-3.4,9-6.9c0.4-0.7,0.5-1.6,0.4-2.4c-0.2-2.2,0.1-4.5-0.9-6.5c-0.4-0.6-0.9-1.2-1.5-1.7
			c-0.2-0.2-0.5-0.4-0.7-0.6c-1.7-2.3-4.2-3.8-7-4.4c-2.2-0.5-4.5-0.6-6.7-0.2c-2.7,0.6-5.6,0.6-8.3,0c-0.3-0.1-0.7-0.1-1,0
			c-2.9,0.9-5.8-0.3-8.6,0.1c-0.3,0-0.8,0-0.8,0.2c-0.6,1-1.5,0.7-2.3,0.6c-2.8-0.3-5.6-0.7-8.4-1.1c-0.7,0-1.3,0.1-2,0.3
			C33.4,10,32.9,10,32.3,10c-0.7-0.1-1.4-0.3-2-0.4c-1.7-0.2-3.4-0.3-5.2-0.1c-2.3,0.3-4.8-0.5-7.1-0.5c-3.1,0.1-6.2-0.2-9.1,1.8
			c-1.7,1.3-3.1,2.9-4.2,4.7c-0.9,1.3-0.9,3.3-1.3,5c-0.2,0.9-0.3,1.8-0.4,2.7L2.7,23.2z"/>
		<path class="st0" d="M0.1,40.2C0.6,40.1,1.1,40,1.7,40c3.1,0.3,6.3,0.7,9.4,1.2c2.8,0.4,5.5,1.4,7.9,2.8c1.4,0.7,2.7,1.8,3.7,3
			c1,1.2,1.5,2.9,1.1,4.5c-0.6,2.8-2.7,5-5.4,5.7c-2.2,0.7-4.3,1.4-6.5,2.1c-1.2,0.4-2.5,0.6-3.7,1c-0.4,0.2-1,0.6-1,1
			c-0.1,1.3,0,2.7,0,4C7,67.1,6.9,69,6.8,70.8s-0.2,3.9-0.4,5.8c0,0.4-0.1,0.8-0.2,1.3c0,0.2-0.3,0.4-0.4,0.4
			c-0.2,0-0.5-0.2-0.6-0.4c-0.2-0.4-0.3-0.8-0.3-1.3C4.4,71.3,4,66,3.6,60.6c-0.1-0.9,0-1.9,0.1-2.8c0.1-0.8,0.8-1,1.4-0.9
			c3.8,0.1,7.4-1.1,10.8-2.5c1.4-0.6,2.6-1.5,3.6-2.7c1.1-1.1,0.4-3.6-1.3-4.8c-2.2-1.8-4.8-3-7.6-3.7c-1.9-0.4-3.8-0.8-5.7-1.2
			c-1.2-0.2-2.3-0.3-3.5-0.6c-0.5-0.2-1-0.4-1.5-0.7L0.1,40.2z"/>
		<path class="st0" d="M74.8,38.2c0.2,0.4,0.3,0.8,0.4,1.3c0.1,2,0.1,3.9,0,5.9c0,0.8,0.3,1.1,1.1,1.1c1.5,0.1,2.9,0.3,4.4,0.5
			c0.6,0,1.2,0,1.8-0.2c0.7-0.1,1.2-0.1,1.3,0.7s-0.4,0.8-1,0.9c-2.3,0.3-4.5,0.6-6.8,1c-0.4,0.2-0.7,0.6-0.7,1
			c0.1,4.1,0,8.3,0.4,12.4c0.5,5,1.3,10,2,15c0,0.1,0,0.2,0.1,0.3c0.1,0.5,0.3,1.2-0.5,1.3c-0.3,0-0.8-0.7-0.9-1.1
			c-1.1-4.4-2.3-8.9-3.3-13.4C73,63.5,73,62,73,60.6c-0.1-1.5-0.3-3-0.3-4.5c-0.1-1.9-0.1-3.8-0.1-5.8c0-0.7-0.1-1.2-1-1.2
			c-0.9,0-1.8-0.1-2.7-0.2c-0.5,0-1.1-0.1-1.6-0.3c-0.3-0.2-0.6-0.6-0.6-1c0-0.2,0.5-0.5,0.8-0.6c1.4-0.3,2.9-0.5,4.4-0.7
			c0.9-0.1,1.2-0.5,1.2-1.4c0.2-2,0.6-4,0.9-6c0.1-0.2,0.2-0.4,0.3-0.6L74.8,38.2z"/>
		<path class="st0" d="M38.5,52c0.5,0.4,0.9,0.6,1,0.9c0.4,1.1,0.8,2.2,1.1,3.3s0.5,2,0.8,2.9c1.5,4.7,0.7,9.8-2.3,13.7
			c-0.6,0.7-1.4,1.2-2.2,1.4c-0.8,0.4-1.7,0.6-2.6,0.7c-1.7,0.1-3.4-0.6-4.7-1.7c-0.5-0.4-1-0.9-1.3-1.5c-0.5-0.6-0.9-1.3-1.2-2.1
			c-1.6-4.2-2.1-8.8-1.5-13.3c0.3-1.8,0.8-3.6,1.4-5.3c0.1-0.3,0.4-0.5,0.9-0.8c0.1,0.5,0.4,1.1,0.3,1.4c-1,2-0.8,4.1-0.6,6.2
			c0.1,1.6,0.4,3.2,0.7,4.7c0.5,2.4,1.5,4.7,3,6.7c2.1,2.9,5.6,2,7.3-0.8c1.1-2.2,1.7-4.6,1.7-7c0-1.4-0.3-2.8-0.6-4.1
			c-0.3-1.4-0.7-2.8-1-4.2C38.4,52.8,38.4,52.4,38.5,52z"/>
		<path class="st0" d="M53.9,51.6c-0.3,0.2-0.6,0.4-1,0.6c-1.4,0.7-3,1.1-4.1,2.1C46.9,56.2,47,58,50,59.5c4,2,7.1,4.8,7.1,9.7
			c0,3.2-1,6.3-3,8.8c-0.3,0.6-0.7,1.1-1.1,1.6c-0.3,0.3-0.8,0.3-1.2,0.4c0-0.4-0.2-1,0-1.2c1.6-1.9,2.1-4.3,2.6-6.7
			c0.2-1.1,0.1-2.2-0.4-3.2c-1.2-2.7-2.7-5.2-5.5-6.6c-1.1-0.5-2.1-1.2-3.1-1.8c-1.6-0.8-2.2-2.7-1.4-4.3c0,0,0-0.1,0-0.1
			c1.1-2.7,3.4-3.8,5.9-4.6c1-0.3,2-0.5,3-0.6c0.4,0,0.7,0.1,1.1,0.3L53.9,51.6z"/>
		<path class="st0" d="M65,25.4c0.4,0.6,0.8,1.1,1.2,1.7c2.7,3.5,6.7,3.7,9.9,1.1c1.3-1.1,2.2-2.6,2.8-4.1c1-2.6-0.2-5-1.7-7.1
			c-2.4-3.1-5.6-3.9-9.4-3.1c-0.8,0.1-1.5,0.2-2.3,0.3c-0.4,0-0.8,0-1.2,0.1c-2.6,1.1-5.1,2.3-7.7,3.4c-0.4,0.2-0.8,0.4-1.2,0.5
			c-2.4,0.3-4.7,0.6-7.1,0.7c-4.1,0.1-8.2,0.1-12.3-0.1c-1.9,0-3.9-0.3-5.8-0.8c-1.7-0.6-3.3-1.3-4.9-2.2c-0.9-0.2-1.8-0.6-2.6-1
			c-1.1-0.8-2.4-1.2-3.7-1.3c-2.3-0.2-4.5-0.7-6.8,0.1c-1.7,0.7-3.3,1.8-4.4,3.3c-1.8,2-2,4.3-1.5,6.8c0,0.2,0,0.5,0,0.7
			c-1-0.6-1.6-2.5-1.3-3.9c0.6-3.1,2.7-5.7,5.5-7.1c1.7-0.9,3.6-1.3,5.4-1c2,0.1,3.9,0.4,5.8,0.8c2,0.6,3.9,1.8,5.8,2.6
			c2,0.9,4.1,1.6,6.3,2c3.4,0.4,6.8,0.6,10.3,0.5c3.1-0.1,6.3-0.3,9.4-0.8c1-0.2,2.1-0.5,3-1c2.3-1,4.6-2.1,7-2.9
			c1.3-0.4,2.6-0.6,4-0.6c1.8-0.1,3.7,0,5.5,0.2c2.8,0.3,4.5,2.2,5.8,4.4c1.4,2,1.8,4.5,1.2,6.9c-0.6,2.3-4.6,5.7-7,6.1
			c-3.6,0.6-6-1.1-7.8-3.9c-0.2-0.4-0.4-0.7-0.5-1.1L65,25.4z"/>
		<path class="st0" d="M52.3,23.6c0.4,0.8,0.8,1.5,1.2,2.2c1,1.2,2,0.8,2.9-0.2s1.4-1.8,2.2-2.8c-0.1,0.6-0.1,1.3,0,2
			c0.2,0.4,0.5,0.8,0.8,1.1c0.1,0.1,0.7-0.4,0.8-0.6c0.2-0.5,0.3-1.1,0.2-1.7c-0.7-1.8,0.1-3.2,1.3-4.4c0.8-0.8,1.6-1.6,2.4-2.4
			c0.3-0.2,0.6-0.3,1-0.2c-3.1,3-4.9,6.3-3.3,10.8h-15c-4.3,0-8.6,0-12.9-0.1c-2.7,0-5.4-0.3-8.2-0.4c-0.6,0-1.2-0.1-1.7-0.3
			c-0.3-0.3-0.5-0.7-0.5-1.1c0-1.1,0.3-2.3,0.3-3.5c0-0.5-0.2-1.1-0.5-1.5c-1-1.3-2-2.6-3-3.9c-0.1-0.3-0.2-0.5-0.3-0.8
			c0.4,0.2,0.8,0.4,1.2,0.7c1.1,1.1,2.1,2.3,3.1,3.6c0.3,0.7,0.4,1.4,0.3,2.1c-0.1,0.9-0.5,1.8,0.5,2.6c1.4,0,1.5-1,1.5-1.8
			c0.9,0.8,1.9,1.5,2.9,2.4s1.7,0.2,2.5-0.1c0.3-0.1,0.5-0.8,0.7-1.3c0.1-0.3,0.1-0.5,0.1-0.8c0.7,0.8,1.4,1.5,1.9,2.2
			c0.9,1.2,2.7,1.4,3.9,0.5c0,0,0,0,0,0c0.5-0.5,1.1-0.8,1.8-1.3l0.2,1.5l3.6,0.6c0.6,0.1,1-0.1,1-0.8c0-0.4,0.1-0.8,0.2-1.2
			c0.4,0.4,0.7,0.7,0.9,1c1,1.1,1.9,1.4,3.1,0.5C50.6,25.2,51.5,24.3,52.3,23.6z"/>
		<path class="st0" d="M64.9,15.6c-0.9,0.4-1.7,1-2.6,1.3c-1.6,0.7-3.2,1.2-4.7,2c-0.3,0.1-0.5,0.7-0.7,1.1c0.4,0.1,0.7,0.2,1.1,0.2
			c0.6-0.1,1.3-0.1,1.9-0.2c-1.5,1.8-4.2,2.5-4.5,5.3c-0.4-0.8-0.3-1.8,0.4-2.5c0.7-0.9,0.5-1.5-0.6-1.8c-0.8-0.2-1.7-0.3-2.5-0.3
			c-2.8,0-5.7,0.2-8.5,0.2c-3.4,0-6.8-0.2-10.2-0.3c-0.5,0-1.1,0.1-1.6,0.2c-0.5,0-0.9,0-1.4,0s-0.9,0-1,0.2c-0.2,0.4-0.1,0.8,0,1.1
			c0.4,0.6,0.5,1.1-0.5,1.5c-0.6-0.7-1.2-1.5-1.9-2.1c-0.7-0.6-1.4-1.1-2.2-1.7l0.1-0.3h1.2c-0.1-1-0.9-1.9-1.9-2.1
			c-1.5-0.6-2.9-1.5-4.3-2.2l0.2-0.5c0.5,0.1,0.9,0.2,1.3,0.4c2.8,1.3,5.6,2.6,8.4,3.9c0.4,0.1,0.7,0.1,1.1,0.1
			c0.7,0.1,1.4,0.2,2,0.3c0.4,0.1,0.9,0.2,1.3,0.3c2,0.1,4.1,0.2,6.1,0.2s4.3-0.2,6.4-0.4c1.9-0.1,3.9-0.3,5.8-0.5
			c1.2-0.2,2.5-0.5,3.7-0.9c1.1-0.3,2.1-0.7,3.2-1.1c1-0.4,2-1,3-1.5c0.5-0.2,1-0.4,1.6-0.6L64.9,15.6z"/>
		<path class="st0" d="M60,75.1c0.5-3.5,0.9-6.8,1.3-10c0.3-2.2,0.5-4.3,0.6-6.5c0-1-0.2-1.9-0.5-2.8c-0.2-0.5-1-0.7-1.4-1.1
			c-0.3-0.4-0.6-0.7-0.9-1.2c0.4-0.2,0.8-0.4,1.3-0.5c1.1-0.1,2.2-0.1,3.2,0c0.4,0.1,1.1,0.7,1.1,1c0,1.9-0.2,3.9-0.5,5.8
			c-0.8,4.6-1.7,9.2-2.5,13.8c-0.1,0.5-0.2,1.1-0.5,1.6c-0.2,0.3-0.5,0.5-0.8,0.8L60,75.1z"/>
		<path class="st0" d="M1.2,23.8c-0.6-2-0.6-4.1,0-6.1c1.1-4.2,3.6-7.9,7.2-10.5c1-0.6,2-1,3.1-1.3c0.7-0.3,1.4-0.5,2.1-0.7
			c-1.5-1.8-1.5-3,0-4.5C14.6,0,16,0.1,17,0.8c-0.7,0.1-1.3,0.1-2,0.1c-1,0.1-1.7,0.9-1.7,1.8c0.2,0.9,0.8,1.7,1.7,2
			c1.3,0,2.7,0,4,0.1C20.8,4.8,22.5,5,24.3,5c1,0,2.1-0.2,3.1-0.2c1.4,0,2.8,0,4.3-0.1c1.7,0,3.3-0.1,5-0.1c1.1,0,2.1,0.2,3.2,0.3
			v0.3c-0.2,0.1-0.4,0.1-0.6,0.2c-3.1-0.1-6.2-0.2-9.3-0.2s-6,0.4-9,0.5c-2,0.1-4,0-6,0.2c-0.9,0.1-1.8,0.3-2.7,0.6
			c-4.3,0.9-7,3.6-9,7.4c-1.6,3-2.3,6.3-2,9.7L1.2,23.8z"/>
		<path class="st0" d="M47.4,5.2l2.7-0.2c2.1-0.1,4.1-0.3,6.2-0.4c0.9,0,1.8,0.4,2.7,0.4c3.8,0.1,7.5,0,11.3,0
			c0.9,0,1.7-0.7,1.8-1.6c0-0.2,0-0.5-0.1-0.7c-0.4-1.4-0.4-1.4-1.6-1.9c1.2-0.3,1.7-0.2,2.2,0.5c1.2,1.7,1.2,2.2-0.3,4.4
			c5.6,1,8.8,4.7,10.8,9.5c1.3,2.9,2.3,6,0.9,9.3c0.3-2.3,0.1-4.7-0.6-7c-0.8-3-2.5-5.7-4.8-7.8c-2.5-2-5.6-3.2-8.8-3.4
			c-3-0.3-6.1-0.1-9.1-0.2c-0.9,0-1.8-0.3-2.6-0.3c-3.2-0.1-6.5-0.2-9.7-0.3h-0.8L47.4,5.2z"/>
		<path class="st0" d="M35.8,42v-0.1c0.1-1.6,0.6-3.1-0.4-4.7c-0.4-0.6,0-1.8,0-2.6c0-0.8-0.1-1.6-0.2-2.4c-0.2-1,0.2-1.5,1.2-1.6
			c0.4,0,0.9,0,1.3,0c0.7,0.1,1.2,0.5,1.1,1.3c-0.2,1.4-0.3,2.8-0.4,4.1c-0.2,1.9-0.2,3.7-0.4,5.6c-0.1,0.5-0.1,1.1-0.2,1.6
			c-0.1,0.5-0.2,1.1-0.9,0.9c-0.4-0.2-0.8-0.6-1-1C35.7,42.8,35.9,42.3,35.8,42L35.8,42z"/>
		<path class="st0" d="M44.4,33c-0.1-0.3-0.2-0.6-0.3-0.8c-0.4-0.8-1.1-0.9-1.6-0.2c-0.3,0.5-0.8,1.2-0.7,1.7
			c0.3,1.6-0.2,3.3,0.7,4.9c0.2,0.5,0.3,1.1,0.2,1.7c0,1.1-0.1,2.2-0.2,3.2c-0.2,1.6-0.6,3.2-1.1,4.7c0.3-2.5-1.3-4.8-0.3-7.3
			c0.1-0.6,0.1-1.2,0-1.7c-0.1-2.3-0.3-4.6-0.3-6.9c0-0.7,0.4-1.7,0.8-1.9c0.8-0.2,1.6-0.1,2.4,0.3c1.1,0.5,0.7,1.6,0.7,2.4L44.4,33
			z"/>
		<path class="st0" d="M49.7,31.5c-0.6-0.1-1.3-0.1-1.9,0c-0.7,0.3-0.5,1.1-0.5,1.8c0.2,2.2,0.6,4.3,1.2,6.4
			c0.2,1.4-0.3,2.7-1.3,3.7c-0.4-1.4-1-2.7-0.5-4.1c0.1-0.4,0.1-0.8,0-1.1c-1.1-2.1-0.4-4.3-0.3-6.4c0-0.9,0.9-1.4,1.9-1.3
			C49,30.6,49.6,30.7,49.7,31.5z"/>
		<path class="st0" d="M43.9,0.2c6-0.2,12,0,18,0.4c-0.4,0.1-0.8,0.2-1.2,0.2c-2.6,0-5.2,0-7.8,0c-2.1,0-4.2,0.1-6.3,0.1
			c-0.9,0-1.8-0.1-2.7-0.2L43.9,0.2z"/>
		<path class="st0" d="M63.4,46.8c-1.7-1.2-1.3-2.8-1-4.2c0.3-1,1.2-1,2.1-0.8s0.9,0.7,0.8,1.4C65.2,44.6,64.5,45.9,63.4,46.8z"/>
		<path class="st0" d="M20.4,25.1c-0.2,2.9-3.9,5.3-6.9,5.1s-5.5-1.7-5.8-3.8c1.9,2,4,3.2,6.8,3S18.8,27.1,20.4,25.1z"/>
		<path class="st0" d="M39.2,0.6c-0.3,0.1-0.5,0.3-0.7,0.3c-4.9-0.1-9.8-0.1-14.6-0.2c-7.3-0.1-0.1-0.3-0.1-0.4
			C26.1-0.2,38.3,0,39.2,0.6z"/>
		<path class="st0" d="M73.6,21.3c-1.1-0.5-1.6-2.1-3.1-1.8c-1.1,0.1-2.1,0.5-3,1c-1.2,0.8-1.8,3.6,0,6.5c-1.9-0.7-2-2.1-1.8-4.6
			c0.2-2,2.1-3.3,4.3-3.5C71.6,18.8,73.1,19.7,73.6,21.3z"/>
		<path class="st0" d="M17.5,26.5c1.7-1.6,1.9-4.2,0.6-6.1c-0.9-1.2-2.1-1.2-3.3-1.4c-1.4-0.3-1.9,1.2-3,1.7
			c0.1-1.4,1.6-2.3,3.4-2.3s4.3,1.9,4.5,3.6C20,24.4,19.2,26.2,17.5,26.5z"/>
		<path class="st0" d="M3.5,25.6c2.2,4.3,5.5,7,10.7,6.4v0.4c-0.4,0.2-0.9,0.4-1.3,0.5C9.6,33,7.2,31.2,5.1,29
			c-0.5-0.6-1-1.2-1.4-1.9c-0.2-0.4-0.3-0.9-0.4-1.4L3.5,25.6z"/>
		<path class="st0" d="M71.4,21.1c1.4,0.3,2.3,1.8,2,3.2c0,0,0,0,0,0c-0.1,0.2-0.2,0.4-0.3,0.5c-0.6,0.6-3.1,0.8-4,0.3
			c-1-0.6-1.5-1.8-1.2-2.9c0.1-0.3,0.3-0.5,0.5-0.6c-0.4,1.4-0.1,2.6,1.1,3c0.8,0.2,1.7,0.1,2.5-0.3C72.7,23.9,72.3,22.4,71.4,21.1z
			"/>
		<path class="st0" d="M35.2,22.3c0.6,0.6,1.3,1.2,2,1.7c0.2,0.1,0.8-0.3,1.2-0.5s0.6-0.3,1.1-0.6c-0.5,2-2.1,2.7-3,2.4
			c-1.1-0.3-1.7-1.5-1.4-2.6C35.1,22.6,35.1,22.4,35.2,22.3z"/>
		<path class="st0" d="M50.2,22.2c0.5,1.3-0.3,2.1-0.9,3c-0.4,0.6-1.3,0.8-1.9,0.4c-0.2-0.1-0.3-0.2-0.4-0.4
			c-0.1-0.1-0.1-0.2-0.1-0.3c-0.2-0.6-0.4-1.2-0.7-2c1.1,0.3,1,2.1,2.4,1.5C49.7,24.1,49.9,23.2,50.2,22.2z"/>
		<path class="st0" d="M16.1,24.7c-0.9,1.3-2,0.5-2.9,0.1c-1.1-0.4-1.2-1.6-0.9-2.7c0.2-0.8,0.9-1.4,1.7-1.5
			c-0.3,0.4-0.5,0.7-0.7,0.9c-0.9,1.5-0.2,2.8,1.5,2.9c0.4,0,0.7,0.1,1.1,0.2L16.1,24.7z"/>
		<path class="st0" d="M47.3,44.4c1.4,1.5,0,3.1,0.3,4.6C46.8,47.6,46.7,45.2,47.3,44.4z"/>
		<path class="st0" d="M1.3,23.7l2.5,6c-1.5-1.6-2.4-3.7-2.6-5.9L1.3,23.7z"/>
		<path class="st0" d="M18,0.7c1.3-0.8,3.1-0.6,3.6,0.2L18,0.7z"/>
		<path class="st0" d="M16.1,24.7L16,24.6c0.1-0.3,0.3-0.5,0.5-0.8c0.7-0.7,0.9-1.8,0.4-2.6l0.3-0.1c0.2,0.3,0.5,0.6,0.5,0.9
			C17.5,23.1,17.6,24.3,16.1,24.7z"/>
		<path class="st0" d="M67.7,1.1l-3-0.3V0.4l3,0.2V1.1z"/>
		<path class="st0" d="M42.8,0.8c-0.6,0-1.3,0.1-1.9,0.1c-0.2,0-0.3-0.1-0.4-0.3c0-0.1,0.2-0.4,0.2-0.4c0.7,0,1.4,0.1,2.2,0.1
			L42.8,0.8z"/>
	</g>
</g>
</svg>
