<svg version="1.1" xmlns="http://www.w3.org/2000/svg" xmlns:xlink="http://www.w3.org/1999/xlink" x="0px" y="0px" width="102" height="25" class="logo" alt="Doka" viewBox="50 50 500 120" enable-background="new 0 0 594.584 233.897" xml:space="preserve"><g><path fill="#004388" d="M212.583,114.601c-1.461,7.312-4.058,19.939-5.673,27.886c0,0,62.98-0.006,69.313-0.002l5.664-27.884
                                C273.099,114.601,212.583,114.601,212.583,114.601L212.583,114.601z M215.956,87.515h73.962c13.676,0,22.199,12.481,19.045,27.877
                                l-5.314,25.753c-0.188,0.908-0.41,1.807-0.666,2.691l-35.007,25.188H199.21c-13.676,0-22.203-12.479-19.045-27.879l5.314-25.753
                                C188.635,99.996,202.282,87.515,215.956,87.515L215.956,87.515z"></path><path fill="#004388" d="M144.898,142.486l5.667-27.885H81.209c-0.071,0.349-3.122,15.377-5.664,27.884
                                C78.903,142.494,144.898,142.486,144.898,142.486L144.898,142.486z M191.881,48.803l-19.31,95.015l-35.038,25.202l-69.593,0.005
                                c-13.504,0-21.923-12.479-18.807-27.877l5.249-25.757c3.117-15.396,16.591-27.875,30.095-27.875h71.751l7.859-38.712H191.881
                                L191.881,48.803z"></path><path fill="#004388" d="M506.033,169.02l11.059-54.42l-69.186,0.002c-1.688,8.507-4.422,21.983-5.621,27.886
                                c-2.523-0.001,59.705-0.001,59.705-0.001l-0.264,1.289l-32.301,25.246l-35.48-0.002c-13.672,0-22.066-12.475-18.91-27.872
                                l5.182-25.754c3.156-15.396,16.801-27.877,30.477-27.877h75.734c13.215,0,21.617,11.652,19.324,26.326l-11.203,55.178H506.033
                                L506.033,169.02z"></path><polygon fill="#004388" points="357.326,48.801 344.123,113.8 345.086,113.805 381.641,87.515 422.678,87.515 422.416,88.805
                                369.406,126.912 416.367,167.735 416.107,169.024 375.225,169.02 340.141,138.517 339.098,138.52 332.902,169.02 305.107,169.02
                                329.533,48.801 357.326,48.801"></polygon></g></svg>